<?xml version="1.0" standalone="no"?>
<!DOCTYPE svg PUBLIC "-//W3C//DTD SVG 1.1//EN" "http://www.w3.org/Graphics/SVG/1.1/DTD/svg11.dtd" >
<!--
2013-9-30: Created.
-->
<svg>
<metadata>
Created by iconfont
</metadata>
<defs>

<font id="iconfont" horiz-adv-x="1024" >
  <font-face
    font-family="iconfont"
    font-weight="500"
    font-stretch="normal"
    units-per-em="1024"
    ascent="896"
    descent="-128"
  />
    <missing-glyph />
    
    <glyph glyph-name="qita" unicode="&#58900;" d="M150.528 380.896q37.888 0 58.368-24.064t20.48-51.712l0-11.264q0-34.816-17.92-58.88t-59.904-24.064l-7.168 0q-38.912 0-61.952 21.504t-23.04 59.392l0 14.336q0 13.312 5.632 26.624t15.872 24.064 25.6 17.408 33.792 6.656l10.24 0zM519.168 380.896q37.888 0 58.368-24.064t20.48-51.712l0-11.264q0-34.816-17.92-58.88t-59.904-24.064l-7.168 0q-38.912 0-61.952 21.504t-23.04 59.392l0 14.336q0 13.312 5.632 26.624t15.872 24.064 25.6 17.408 33.792 6.656l10.24 0zM887.808 380.896q37.888 0 58.368-24.064t20.48-51.712l0-11.264q0-34.816-17.92-58.88t-59.904-24.064l-7.168 0q-38.912 0-61.952 21.504t-23.04 59.392l0 14.336q0 13.312 5.632 26.624t15.872 24.064 25.6 17.408 33.792 6.656l10.24 0z"  horiz-adv-x="1024" />

    
    <glyph glyph-name="QQ" unicode="&#58880;" d="M920.8193 293.85303333L917.9541 309.22263333 915.6765 317.10333333000005 913.461 325.43963333 910.5308 333.41723333000004 907.5327 342.30723333000003 904.0819 350.64353332999997 900.3713 359.30563333 893.6615 373.34213333 887.7333 385.68283333 881.8091 396.75333333 876.6643 407.04433333 870.7361 416.45593333 866.3699 425.08403333 857.1897 437.97833333 845.596 455.04273333 842.9237 459.33983333 842.0143 461.13263333 842.0143 462.53173333 843.9661 468.32873333 846.6384 473.50623333 848.9819 483.69833333 850.2841 488.90883333 850.2841 494.34713333 850.9367 498.71013333 850.9367 503.10613333 850.2841 508.15473333 849.5036 512.25693333 847.8096 520.62433333 845.596 528.70083333 843.5793 536.15873333 840.4523 543.3878333299999 836.8686 549.41183333 834.0664 555.14293333 830.9414 560.4832333300001 826.0575 568.4938333299999 824.2326 571.35993333 823.7129 573.76923333 821.4334 589.2377333300001 819.9993 599.36293333 818.3713 611.99933333 815.767 625.02353333 811.7286 639.93843333 809.451 648.33873333 807.6282 655.40693333 805.0848 663.64433333 802.2835 672.40443333 799.4164 680.51493333 795.7697 689.24093333 788.3494 706.10753333 783.9842 714.08513333 778.7085 723.23693333 773.6927 731.11563333 768.7418 739.97353333 761.7073 748.2459333300001 755.7841 756.1916333300001 748.5517 764.46093333 741.1933 771.88593333 733.7661 779.14803333 724.9756 786.60493333 720.3536 789.30813333 715.9883 793.05363333 706.4794 799.56613333 695.5373 806.66333333 684.2995 813.11203333 672.7758 818.90703333 660.1398 824.18453333 648.2524 829.23103333 635.8772 833.59413333 622.3978 837.20963333 610.0186 840.43243333 596.867 843.23353333 584.4259 846.19653333 571.0084 847.59663333 557.8528 849.1925333300001 544.7931 850.81943333 505.488 850.81943333 492.2354 850.10593333 479.7304 848.41103333 467.2553 846.71823333 454.6533 844.66563333 442.1482 842.35313333 430.2618 839.48813333 418.4423 835.77763333 407.4363 832.06313333 396.3943 828.48253333 385.3253 823.14223333 374.9049 818.90703333 365.6858 813.76353333 356.0469 807.96653333 347.1406 801.91063333 338.3651 795.13813333 331.1337 788.78653333 319.8349 778.39853333 310.4229 768.69613333 301.4536 759.31743333 293.1798 749.7419333299999 285.4128 739.97353333 278.6571 730.46503333 272.0482 720.95643333 268.9852 716.69133333 266.152 711.57783333 259.9819 702.52693333 255.081 693.5390333299999 250.6998 685.0068333300001 246.9372 676.01793333 243.2266 667.74953333 240.1345 660.02983333 237.2983 651.79133333 234.4331 644.17053333 230.5916 630.42883333 227.7904 617.20983333 226.2263 606.13733333 224.6633 596.5638333300001 224.6633 578.0363333299999 221.995 575.17033333 219.5196 571.35993333 217.5988 567.87523333 215.9209 564.09783333 213.8512 555.98933333 211.5886 548.56433333 210.7921 541.8579333299999 210.2535 536.9732333300001 210.2535 531.69683333 204.9788 524.20683333 201.2492 516.7169333300001 198.417 509.55383333 196.3153 503.10613333 194.7224 496.91933333 193.1404 491.12333333 193.1404 476.33933333 194.0528 472.75773333 195.3549 466.11523333 196.9839 461.13263333 194.0528 458.95013333 185.782 452.89423333 174.841 443.09183333 168.1302 437.32773333 161.5684 431.66163333 157.0583 427.10273333 153.3296 423.13043333 145.3687 414.79403333 137.7985 406.39273333 131.8553 399.22863333 124.7538 388.77673333 117.9501 379.36403333 111.2883 368.94413333 105.6059 359.30563333 100.9159 349.01563333 95.9371 339.50713333 92.3044 330.06353333000004 88.4778 320.29513333 85.6126 310.78653333 82.8104 300.95123333000004 80.336 292.48593332999997 78.9359 283.33623333 77.4068 274.83593333 76.1037 266.59853333 75.3372 250.54443332999995 75.3372 228.89013333000003 76.1037 222.31053333 78.1694 211.10913332999996 78.9359 206.19153332999997 80.336 201.20883332999995 82.0289 196.42313333000004 83.6109 193.07043333000001 86.1333 186.91453333000004 88.0691 185.61143332999995 89.2753 183.04023332999998 90.7414 182.42263333000005 92.3044 182.42263333000005 98.9142 183.04023332999998 105.6059 184.70003333 111.2883 186.91453333000004 117.1846 190.62803333 122.5882 194.14463333000003 127.489 198.60363332999998 132.7667 203.39243333000002 137.2588 208.27603333000002 141.4942 213.81333332999998 145.3687 218.82693332999997 149.0004 222.93213333000006 151.2629 227.71693332999996 155.6921 235.56653332999997 157.0583 238.78843332999998 157.8398 240.71013332999996 158.2315 242.92453333000003 159.2729 244.74733332999995 160.0724 245.07313333000002 161.5684 245.85463332999996 162.4998 245.85463332999996 162.9056 245.07313333000002 163.6381 245.07313333000002 164.4016 244.74733332999995 166.91 234.00263332999998 169.5633 225.40643333000003 173.181 216.38553333000004 176.8097 208.27603333000002 179.8388 200.16653333 184.5428 193.07043333000001 187.9786 185.61143332999995 191.8562 178.80503333000001 196.3153 172.84713333000002 199.7202 167.18293332999997 208.7235 156.66203332999999 216.5875 147.22043333 224.1267 139.92543333000003 231.6339 133.34683332999998 238.0648 128.23633332999998 247.7037 119.83403333000001 251.6112 118.01023333 252.8994 116.18653332999997 252.8994 115.34113333000005 251.969 114.55963333 251.6112 114.55963333 249.6735 113.90803332999997 242.4271 113.38743333000002 235.7353 112.47603332999995 230.0709 111.69353333000004 224.1267 110.45543333 218.9989 108.89243333000002 213.8512 107.32953333 209.3601 104.98513333000005 205.7933 102.83653332999995 201.2492 101.40453333000005 198.417 99.12303333 195.3549 97.29933332999997 192.117 94.76103333000003 187.9786 89.68143333 186.4486 87.40003333000004 184.5428 85.31543333000002 181.9375 80.04303332999996 180.5054 75.67693333 178.8115 71.31493333000003 178.4387 67.40753332999998 178.4387 60.243433330000016 177.7062 56.62693333000004 177.7062 53.01333333000002 176.8097 49.36583332999999 176.8097 46.17593333000002 177.7062 42.723333329999946 178.4387 39.597433329999944 180.5054 33.60553332999996 181.9375 30.740433329999973 183.7803 27.90733333000003 185.782 25.075333330000035 187.9786 22.59993333 190.9108 19.796833330000027 193.1404 17.453433330000053 199.7202 12.70163333000005 206.282 8.726333329999989 213.8512 5.078833329999952 221.995 1.8900333300000511 230.5916-1.563666669999975 240.1345-3.7771666700000424 249.6735-6.870066670000028 259.9819-8.921666670000036 270.2394-10.48456667000005 280.8227-11.98356666999996 291.7467-13.547566670000037 313.2881-15.762066669999967 335.5329-16.15176667000003 374.9049-16.15176667000003 384.5438-15.762066669999967 392.8136-14.848666669999943 400.7595-14.164066670000011 408.2508-13.547566670000037 420.2342-11.236066670000014 428.8957-8.921666670000036 437.1014-6.870066670000028 452.2788-0.6512666700000409 459.1155 1.8900333300000511 465.7253 5.078833329999952 476.5074 11.038833329999989 486.2732 15.827533330000051 493.5376 20.318533330000037 498.7783 25.075333330000035 507.051 24.163933329999963 513.434 23.512333330000047 526.0679 22.59993333 537.011 22.59993333 540.8855 21.848433330000034 544.7931 20.318533330000037 550.9491 18.104033329999993 557.8528 15.827533330000051 571.0084 11.789333329999977 584.4259 7.033533329999955 597.5156 3.322033329999954 610.6732 0.7188333300000522 624.1876-2.6059666700000435 638.1258-4.525666669999964 651.3154-5.958666669999957 664.601-7.749466669999947 677.0061-8.921666670000036 690.2587-9.703166669999973 727.0593-9.703166669999973 738.9138-8.270066670000006 750.5054-7.749466669999947 761.7073-5.958666669999957 771.9978-3.7771666700000424 782.2882-1.563666669999975 792.19 0.7188333300000522 796.2914 1.8900333300000511 800.8525 3.322033329999954 809.451 6.676733330000047 817.0692 10.159433329999956 824.2326 13.743933330000004 830.9414 17.453433330000053 836.8686 21.848433330000034 839.2131 24.163933329999963 842.0143 27.385733329999994 845.596 31.651833330000045 849.5036 36.92823333000001 850.9367 39.597433329999944 851.5882 41.81193332999999 853.2182 44.67703332999997 853.8658 47.73893333000001 853.8658 50.66893332999996 854.6463 53.66393332999996 853.8658 58.02893332999997 853.2182 61.73943333 851.5882 66.10443333 850.2841 69.75203333000002 847.8096 74.11403332999998 844.8815 78.15233333000003 842.0143 81.60593332999997 838.1708 84.56793332999996 830.2908 91.24543332999997 821.4334 97.69103332999998 812.5091 102.83653332999995 803.131 108.11103333000005 781.6387 118.40003333000004 776.4909 121.46293333000006 775.1248 122.89493332999996 774.2134 123.80833332999998 784.5038 133.96743332999995 788.997 139.01403332999996 792.7116 143.66983332999996 799.937 153.83003333 806.7787 164.24893333 812.5091 173.53063333 817.9806 182.42263333000005 825.275 200.16653333 830.9414 214.98553332999995 834.72 225.40643333000003 836.8686 228.89013333000003 838.1708 231.72113333000004 840.4523 233.38203333 841.3607 233.38203333 842.0143 233.02433333 847.5498 222.31053333 852.4997 211.98953332999997 855.9505 206.19153332999997 859.5322 201.20883332999995 863.1179 194.99003332999996 867.674 188.96513332999996 871.5186 184.70003333 873.8631 182.42263333000005 876.1426 180.33803333000003 878.2273 178.80503333000001 880.246 177.34203333000005 884.6742 175.19153332999997 886.9528 174.41003333000003 890.5365 174.41003333000003 892.88 175.19153332999997 895.7452 176.59053332999997 898.9352 178.05753332999996 901.6075 180.33803333000003 904.0819 183.04023332999998 906.8851 186.39293333 909.0967 188.96513332999996 911.5751 193.07043333000001 913.461 196.42313333000004 915.6765 201.20883332999995 916.8478 205.21613333000005 920.0368 214.98553332999995 922.1215 225.79723333000004 923.6205 237.78003333000004 924.6628 244.74733332999995 924.6628 264.28613333 923.0998 278.22263333Z"  horiz-adv-x="1000" />

    
    <glyph glyph-name="jiayongdianqi" unicode="&#58906;" d="M384.277504 787.403827 124.906802 787.403827c-60.50857 0-109.732557-49.232282-109.732557-109.728051l0-738.190579c0-60.478464 49.226138-109.730099 109.732557-109.730099L384.277455-170.244902c60.509594 0 109.734605 49.252762 109.734605 109.731123L494.01206 677.674689C494.014157 738.169498 444.788019 787.403827 384.277504 787.403827zM434.157466-60.514867c0-27.512627-22.375526-49.878016-49.880064-49.878016L124.906802-110.392883c-27.50249 0-49.880064 22.365389-49.880064 49.878016L75.026738 677.674689c0 27.508531 22.378598 49.878016 49.880064 49.878016L384.277455 727.552705c27.505562 0 49.880064-22.368461 49.880064-49.878016L434.157519-60.514867zM903.022899 787.403827 643.651178 787.403827c-60.506522 0-109.733581-49.232282-109.733581-109.728051l0-738.190579c0-60.478464 49.227162-109.730099 109.733581-109.730099L903.022854-170.244902c60.50857 0 109.732557 49.252762 109.732557 109.731123L1012.755411 677.674689C1012.75648 738.169498 963.531366 787.403827 903.022899 787.403827zM952.899789-60.514867c0-27.512627-22.374502-49.878016-49.876992-49.878016L643.651178-110.392883c-27.501466 0-49.87904 22.365389-49.87904 49.878016L593.772138 268.68376l359.128675 0L952.900813-60.514867 952.899789-60.514867zM952.899789 328.533862 593.772167 328.533862 593.772167 677.674689c0 27.508531 22.377574 49.878016 49.87904 49.878016L903.022854 727.552705c27.50249 0 49.876992-22.368461 49.876992-49.878016L952.899846 328.53387zM114.9312 687.648819l279.322829 0 0-59.849114-279.322829 0 0 59.849114ZM114.9312 587.894938l279.322829 0 0-59.850138-279.322829 0 0 59.850138ZM114.9312 488.144026l279.322829 0 0-59.855258-279.322829 0 0 59.855258ZM675.245056 438.265088c-19.298304 0-34.912563-15.644262-34.912563-34.914202s15.614259-34.91113 34.912563-34.91113c19.270656 0 34.913587 15.642214 34.913587 34.91113S694.515712 438.265088 675.245056 438.265088zM675.245056 148.96512c19.270656 0 34.913587 15.66679 34.913587 34.915226 0 19.288269-15.642931 34.913178-34.913587 34.912154-19.298304 0-34.912563-15.625933-34.912563-34.912154C640.332493 164.63191 655.946752 148.96512 675.245056 148.96512z"  horiz-adv-x="1024" />

    
    <glyph glyph-name="shipin" unicode="&#58907;" d="M7.696589 368.295475 7.696589 192.16297c0-196.998758 175.669965-267.305984 238.954906-286.242304l0-70.669526 533.053853 0 0.002047 0 0 70.505797c63.622554 18.66711 238.95593 88.996966 238.95593 297.104691L1018.663323 368.296479 7.696589 368.295475 7.696589 368.295475zM963.516006 202.861619c0-206.405939-207.478682-246.952448-216.256-248.568218l-22.696858-4.056371 0-59.84397L301.795596-109.606939l-0.055296 59.466342-22.256845 4.362342c-8.850944 1.738547-216.645837 44.730778-216.645837 237.940224l0 29.080316 900.677341 0L963.514959 202.861636zM963.516006 258.011699 62.839715 258.011699l0 55.142901 900.677341 0L963.516006 258.011699 963.516006 258.011699zM430.463181 699.143629l569.815552 0 0-55.142912-569.815552 0 0 55.142912ZM26.076979 699.143629l55.145165 0 0-55.142912-55.145165 0 0 55.142912ZM26.076979 588.860877l55.145165 0 0-55.142912-55.145165 0 0 55.142912ZM430.463181 588.860877l569.815552 0 0-55.142912-569.815552 0 0 55.142912ZM91.54263 391.871437c57.87136 12.311347 78.389453 58.247578 81.384858 83.449549l0.189338 207.162163c0 34.474189 37.983642 44.166963 43.098317 44.230349l-0.008192 55.140864c-33.180058 0-98.231194-30.003302-98.231194-99.371213l0-201.754027c-1.076531-5.339648-7.476531-28.448973-37.904794-34.920346L91.54263 391.871437zM201.829786 391.871437c57.872384 12.311347 78.388429 58.247578 81.385882 83.449549l0.189338 207.162163c0 34.474189 37.984666 44.166963 43.099341 44.230349l-0.009216 55.140864c-33.181082 0-98.234266-30.003302-98.234266-99.371213l0-201.754027c-1.077555-5.339648-7.473562-28.448973-37.902746-34.920346L201.829786 391.871437zM312.114995 391.871437c57.875456 12.311347 78.389453 58.247578 81.38793 83.449549l0.18729 207.162163c0 34.474189 37.982618 44.166963 43.100365 44.230349l-0.009216 55.140864c-33.181082 0-98.233242-30.003302-98.233242-99.371213l0-201.754027c-1.078579-5.339648-7.475507-28.448973-37.902746-34.920346L312.114995 391.871437z"  horiz-adv-x="1024" />

    
    <glyph glyph-name="muyingwanju" unicode="&#58903;" d="M50.372301 384.153651l6.285414-3.78624 468.314803 0L414.971802 741.680486l-0.771584 2.173542c-4.061696 10.095923-26.420838 60.427264-67.221709 60.427264-5.196595 0-10.373632-0.858522-15.388058-2.523443-30.558208-10.166579-33.462477-39.796429-35.024077-55.714918-0.352051-3.606118-0.876032-8.973414-1.570816-12.337971-2.274918 2.138726-4.921242 4.953805-6.794035 6.952346-9.803674 10.46743-23.241216 24.804966-43.771699 24.804966-7.582003 0-14.991053-2.04247-22.023475-6.061056-30.085427-17.180262-24.049664-49.205658-21.139251-64.593101 0.584294-3.134362 1.441894-7.66761 1.768346-11.067085-1.656832 0.601702-3.442586 1.29751-4.878336 1.863475-7.993344 3.133338-17.944371 7.031091-29.718016 7.031091-10.911949 0-26.926285-3.562086-41.255219-20.545946-26.522112-31.431885-5.993779-60.504986 2.781491-72.919757 1.47671-2.095718 3.461939-4.910797 4.75648-7.067955-0.008192-0.008192-0.016384-0.016384-0.024576-0.023552-1.313997 0.342835-3.02295 0.892314-4.302131 1.296486-5.461606 1.73353-12.25257 3.890586-20.393267 3.890586-10.724659 0-26.075955-3.880346-38.312141-22.402253-21.809562-32.985293 3.631821-59.67104 15.85879-72.489984 2.307686-2.421146 5.383885-5.650739 7.522611-8.269312-2.540954-0.08489-6.595482 0.291635-9.943859 0.64471-4.685926 0.479949-9.316557 0.908698-13.754778 0.908698-26.787123 0-39.915725-15.454003-46.210355-28.410061C6.445056 428.732979 29.979034 396.456806 50.372301 384.153651zM72.155238 442.89961c2.445824-0.052224 4.988826-0.352051 7.556403-0.61911 4.75648-0.496333 9.590784-0.943514 14.339174-0.943514 21.088154 0 37.308211 8.783053 48.211968 26.101453 20.487475 32.513536-4.516045 58.735718-16.526029 71.340851-0.472781 0.489165-0.980378 1.020211-1.504358 1.570816 3.614515-0.79104 7.634227-1.36407 11.977216-1.36407 16.273306 0 30.413926 7.743386 42.040115 23.026483 22.049075 29.012787 2.961613 56.04137-5.194547 67.587277-1.79497 2.542899-4.309299 6.104064-5.563904 8.45865 0 0 0.008192 0.007168 0.01536 0.016384 0.800256 0.954778 1.400934 1.511424 1.538048 1.761075 2.179686-0.334643 6.739763-2.11927 9.855898-3.340083 7.710925-3.022848 17.319117-6.792704 28.472627-6.792704 11.549491 0 22.383718 4.147507 31.340032 11.987046 20.580557 18.00407 18.116301 42.104934 15.216128 58.453299 9.898803-10.224845 23.09591-21.652173 42.251981-21.652173 6.636442 0 13.239091 1.467392 19.654451 4.360294 28.824678 13.02569 31.588659 41.211597 33.237299 58.05015 0.224154 2.293248 0.507597 5.168742 0.859648 7.71881 4.85888-4.902707 11.119718-14.569882 14.958285-23.559578l88.884941-291.939021L73.323917 433.121946C71.623066 435.446835 70.670336 438.639565 72.155238 442.89961zM290.993152-28.453632c-48.107622 0-87.253709-39.13431-87.253709-87.230669 0-48.101581 39.145062-87.232717 87.253709-87.232717 48.100454 0 87.236301 39.131238 87.236301 87.232717C378.230477-67.587942 339.095654-28.453632 290.993152-28.453632zM290.993152-150.165658c-19.026125 0-34.497024 15.469363-34.497024 34.480333 0 19.006874 15.471002 34.479309 34.497024 34.479309 19.010765 0 34.482688-15.472435 34.482688-34.479309C325.477888-134.694349 310.003917-150.165658 290.993152-150.165658zM581.142016-28.453632c-48.110694 0-87.254733-39.13431-87.254733-87.230669 0-48.101581 39.144038-87.232717 87.254733-87.232717 48.100454 0 87.238349 39.131238 87.238349 87.232717C668.381389-67.587942 629.24247-28.453632 581.142016-28.453632zM581.142016-150.165658c-19.027149 0-34.499072 15.469363-34.499072 34.480333 0 19.006874 15.472026 34.479309 34.499072 34.479309 19.008717 0 34.480742-15.472435 34.480742-34.479309C615.62368-134.694349 600.151757-150.165658 581.142016-150.165658zM987.765248 690.173389c-38.827827 38.827315-80.482202 56.951091-132.675072 29.880525-32.250778-16.725914-50.118451-62.161715-67.72009-91.311616-53.258138-88.220262-105.474458-177.060659-157.587456-265.957274L32.151551 362.785024l3.134566-29.190861c0.376627-3.582566 42.63168-358.386381 404.164198-358.386381 290.448691 0 378.301133 235.453542 384.186368 359.959245l1.293517 27.620045L690.999449 362.787072c30.138675 51.289088 60.363162 102.520934 90.727014 153.662771 22.986445 38.713754 46.076211 77.385523 69.482291 115.842355 25.002394 41.074483 53.929472 65.922458 99.254579 20.58793C974.539571 628.810803 1011.841638 666.108262 987.765248 690.173389zM439.451238 27.958118c-259.40951 0-329.353318 204.266291-346.576282 282.073293l674.915487 0C755.762074 233.676442 699.237376 27.958118 439.451238 27.958118z"  horiz-adv-x="1024" />

    
    <glyph glyph-name="huazhuangpin" unicode="&#58908;" d="M681.991987 451.342899 681.991987 586.462291l-1.923891 4.973261C661.103309 640.5184 553.642598 826.584115 458.863206 808.752998c-73.05175-13.626368-81.503539-125.917798-81.503539-209.193472l0-148.220786c-33.87177-17.363456-57.118208-52.618445-57.118208-93.223219l0-456.938963c0-57.730867 46.975795-104.712909 104.716186-104.712909L634.393971-203.536351c57.74039 0 104.716186 46.982042 104.716186 104.712909L739.110157 358.117652C739.111117 398.721382 715.863757 433.976371 681.991987 451.342899zM424.958566 405.714688 634.393971 405.714688c22.984397 0 42.217165-16.380109 46.639104-38.078259l-302.71661 0C382.740378 389.334682 401.97417 405.714688 424.958566 405.714688zM469.342208 752.603187c36.219392 6.778368 124.294861-101.123072 155.531469-176.954163l0-112.817462L434.478821 462.831562 434.478821 599.56061C434.478797 715.243366 456.390758 750.198426 469.342208 752.603187zM681.991987-98.821274c0-26.24983-21.353165-47.596032-47.597978-47.596032L424.958613-146.417306c-26.244813 0-47.597978 21.345178-47.597978 47.596032L377.360636 329.560246l304.632317 0L681.991987-98.821274 681.991987-98.821274z"  horiz-adv-x="1024" />

    
    <glyph glyph-name="chufangjiaju" unicode="&#58909;" d="M272.412672 746.667776c-28.568576 0-51.825664-23.251968-51.825664-51.838976l0-267.657216c0-28.580864 23.257088-51.826688 51.825664-51.826688l480.274432 0c28.580864 0 51.826688 23.245824 51.826688 51.826688L804.513792 694.829824c0 28.587008-23.245824 51.838976-51.826688 51.838976L272.412672 746.6688zM765.09184 690.5792l0-259.76832c0-9.179136-7.47008-16.65536-16.661504-16.65536L276.656128 414.15552c-9.166848 0-16.649216 7.4752-16.649216 16.65536l0 259.76832c0 9.191424 7.482368 16.661504 16.649216 16.661504l471.774208 0C757.62176 707.240704 765.09184 699.770624 765.09184 690.5792zM125.300736-108.534016l56.495104 0 0-38.828032 38.791168 0 0 38.828032 583.42912 0 0-38.828032 38.828032 0 0 38.851584 63.345664-0.023552c29.174784 0 53.147648 31.794176 53.147648 60.3136l0 442.69568c0 30.084096-25.392128 53.645312-53.147648 53.645312l-44.695552 0c-29.830144 0-56.992768-25.567232-56.992768-53.645312l0-61.145088c-5.23776 1.788928-10.791936 2.982912-16.635904 2.982912L237.841408 336.313088c-5.85728 0-11.385856-1.188864-16.649216-2.989056l0 61.151232c0 29.587456-22.48192 53.645312-50.116608 53.645312l-45.775872 0c-29.490176 0-59.987968-25.567232-59.987968-53.645312l0-442.69568C65.312768-75.358464 94.96064-108.534016 125.300736-108.534016zM221.192192 280.83584c0 9.191424 7.47008 16.661504 16.649216 16.661504l550.023168 0c9.15456 0 16.612352-7.445504 16.635904-16.600064l0-130.809856c-0.023552-9.165824-7.481344-16.587776-16.635904-16.587776L237.841408 133.499648c-9.179136 0-16.649216 7.445504-16.649216 16.635904L221.192192 280.83584zM104.128512 394.475264c0 8.6272 11.277312 18.46784 21.172224 18.46784l42.125312 0c9.239552 0 14.951424-9.585664 14.951424-18.46784l0-302.833664 660.95104 0 0 51.777536c0 0.023552 0 0.023552 0 0.048128L843.328512 314.21312c0 0.012288 0 0.029696 0 0.048128l0 80.212992c0 8.457216 11.823104 18.46784 21.801984 18.46784l41.059328 0c8.973312 0 14.32064-9.385984 14.32064-18.46784l0-439.663616c0-12.126208-8.403968-25.125888-14.32064-25.125888L125.300736-70.315264c-8.306688 0-21.172224 15.255552-21.172224 25.125888L104.128512 394.475264z"  horiz-adv-x="1024" />

    
    <glyph glyph-name="fuzhuangyundong" unicode="&#58910;" d="M986.059 499.442c-2.159 3.446-14.005 21.969-34.862 48.619-0.065 0.085-0.17 0.124-0.235 0.202-13.147 17.157-23.301 28.958-30.804 36.864-0.326 0.41-0.546 0.865-0.898 1.262-19.661 22.268-40.597 43.659-62.235 63.561-48.643 44.745-100.58 81.713-154.349 109.865-21.508 11.261-43.612 21.228-65.654 29.634-9.817 3.797-21.922 0.013-27.449-8.505-9.376-14.446-24.55-36.188-43.679-57.787-17.723-19.993-35.277-24.895-53.534-27.711-18.284 2.816-35.838 7.718-53.561 27.711-19.129 21.599-34.303 43.34-43.679 57.787-5.526 8.517-17.632 12.301-27.45 8.505-22.042-8.406-44.146-18.373-65.654-29.634-53.769-28.153-105.705-65.12-154.35-109.865-21.637-19.901-42.573-41.292-62.247-63.561-0.338-0.397-0.559-0.852-0.883-1.262-7.504-7.906-17.659-19.707-30.806-36.864-0.064-0.079-0.169-0.117-0.234-0.202-20.857-26.651-32.704-45.173-34.862-48.619-3.017-4.825-3.861-10.462-2.418-15.871 1.521-5.637 5.331-10.313 10.729-13.159l188.718-99.705c-0.052-0.064 0.819-0.61 1.756-1.116 3.302-1.828 7.152-2.81 11.078-2.81 7.828 0 15.201 3.874 19.245 10.11 0.429 0.651 8.947 13.705 24.265 32.846l-44.757-411.764c0.052-12.273 10.065-21.636 22.289-21.636h485.621c12.222 0 22.235 9.363 22.288 21.636l-44.758 411.764c15.317-19.141 23.835-32.194 24.266-32.846 4.043-6.236 11.417-10.11 19.245-10.11 3.926 0 7.776 0.981 11.077 2.81 0.937 0.506 1.808 1.052 1.757 1.116l188.717 99.705c5.395 2.848 9.206 7.522 10.727 13.159 1.445 5.41 0.599 11.046-2.416 15.871zM90.091 496.594c6.93 8.186 24.901 29.439 40.635 48.464l151.321-75.686-5.382-7.536-0.884 0.475c0.117-0.5 0.091-1.007 0.156-1.508l-27.111-37.956c-0.467 0.059-0.923-0.019-1.392 0.078-1.755-2.327-3.601-4.759-5.085-6.781l-152.256 80.451zM525.196 18.417h-232.683l50.141 452.482c1.040 3.765 0.637 8.562-1.34 12.594-3.004 6.222-8.946 10.604-16.033 11.891l-167.548 83.787c13.25 14.050 27.074 27.711 41.182 40.675 45.85 42.183 94.573 76.902 144.805 103.195 14.537 7.6 29.191 14.505 43.639 20.571 11.975-17.152 24.446-33.074 37.151-47.41 7.827-8.842 16.019-16.573 25.056-23.62 16.71-13.068 33.485-16.871 49.935-18.621v-2.165l0.377 0.033 8.88-0.41v1.164l2.433 0.188c0.389 0.027 0.78 0.059 1.17 0.085 0.364-0.027 0.754-0.059 1.143-0.085l2.431-0.188v-1.164l8.882 0.41 0.378-0.033v2.165c16.449 1.749 33.223 5.552 49.932 18.621 9.039 7.049 17.23 14.779 25.058 23.62 12.69 14.336 25.174 30.258 37.151 47.41 14.447-6.066 29.102-12.971 43.637-20.571 50.234-26.293 98.956-61.012 144.806-103.195 14.108-12.964 27.932-26.624 41.181-40.675l-167.546-83.787c-7.087-1.287-13.029-5.67-16.034-11.891-1.975-4.032-2.379-8.829-1.34-12.594l50.142-452.482h-206.986zM782.349 416.142c-1.484 2.021-3.33 4.453-5.085 6.781-0.468-0.097-0.924-0.019-1.392-0.078l-27.111 37.956c0.065 0.5 0.038 1.008 0.157 1.508l-0.886-0.475-5.382 7.536 151.307 75.686c15.746-19.024 33.706-40.277 40.647-48.464l-152.254-80.451z"  horiz-adv-x="1024" />

    
    <glyph glyph-name="tushu" unicode="&#58914;" d="M90.0352 608.366336c-13.216768 0-23.954432-10.73664-23.954432-23.929856l0-569.376768c0-6.760448 2.870272-13.253632 7.91552-17.80224 4.984832-4.473856 11.101184-6.735872 18.518016-6.030336 0.4864 0.048128 53.087232 5.3504 121.945088 5.3504 70.4512 0 169.293824-5.665792 240.098304-32.587776 2.735104-1.04448 5.593088-1.580032 8.4992-1.580032 3.818496 0 7.380992 1.168384 10.663936 2.845696 7.003136-2.72384 14.01856-5.569536 21.059584-8.65792 2.588672-1.14176 5.337088-1.726464 8.158208-1.726464 3.574784 0 7.016448 1.216512 10.15296 3.040256 3.137536-1.823744 6.5792-3.040256 10.15296-3.040256 2.808832 0 5.568512 0.58368 8.134656 1.701888 7.04 3.111936 14.08 5.957632 21.08416 8.682496 3.270656-1.678336 6.846464-2.845696 10.651648-2.845696 2.9184 0 5.763072 0.535552 8.522752 1.580032 70.779904 26.921984 169.622528 32.587776 240.086016 32.587776 68.857856 0 121.458688-5.302272 122.017792-5.3504 6.846464-0.608256 13.461504 1.55648 18.4576 6.030336 5.033984 4.547584 7.904256 11.041792 7.904256 17.80224L960.103424 584.43648c0 13.193216-10.748928 23.929856-23.954432 23.929856-13.193216 0-23.942144-10.73664-23.942144-23.929856l0-543.356928c-16.18432 1.168384-37.571584 2.36032-62.389248 3.040256L849.8176 616.099584c0 12.329984-8.438784 22.5792-19.637248 23.831552-17.765376 1.957888-35.90656 2.966528-53.926912 2.966528-147.187712 0-250.591232-65.161216-263.163904-73.46688-12.583936 8.30464-115.975168 73.46688-263.16288 73.46688-18.020352 0-36.161536-1.009664-53.9392-2.966528-11.186176-1.252352-19.62496-11.502592-19.62496-23.831552L176.362496 44.119808c-24.81664-0.679936-46.205952-1.871872-62.401536-3.040256L113.96096 584.43648C113.965056 597.629696 103.228416 608.366336 90.0352 608.366336zM545.097728 534.097664c28.392448 16.37888 116.31616 60.894208 231.159808 60.894208 9.959424 0 19.989504-0.340992 29.888512-0.985088L806.146048 51.635968c-11.54048 0.704512-23.673856 1.07008-36.161536 1.07008-54.85056 0-137.715712-6.956032-224.88576-39.47008L545.098752 534.097664zM220.04224 594.00576c9.885696 0.644096 19.9168 0.985088 29.888512 0.985088 114.832384 0 202.768384-44.515328 231.159808-60.894208L481.09056 13.235968c-87.182336 32.514048-170.0352 39.47008-224.88576 39.47008-12.48768 0-24.623104-0.365568-36.161536-1.07008L220.043264 594.00576z"  horiz-adv-x="1024" />

    
    <glyph glyph-name="weibiaoti9" unicode="&#58916;" d="M922.944 501.664l-168.896 0L754.048 567.2c1.536 3.072 2.496 6.528 2.496 10.112C756.544 676.704 675.776 757.536 576.448 757.536 545.024 757.536 515.52 749.408 489.728 735.2c-22.464 9.6-46.208 14.784-70.912 14.784-95.808 0-174.208-75.264-179.648-169.728C237.312 577.056 236.096 573.28 236.096 569.248l0-67.584L103.552 501.664C78.656 501.664 56 478.752 56 453.536l0-586.752c0-23.488 20.032-40.64 47.552-40.64l143.872 0 33.728 0 641.728 0c24.896 0 45.056 20.224 45.056 44.992L967.936 456.672C968 481.504 947.84 501.664 922.944 501.664M710.912 589.472c-1.216-2.752-1.856-5.76-1.856-9.024l0-78.784L438.784 501.664 438.784 567.2c1.536 3.072 2.496 6.528 2.496 10.112 0 74.496 60.544 135.104 135.104 135.104C646.848 712.48 704.768 658.272 710.912 589.472M418.816 704.992c9.408 0 18.752-1.088 27.904-2.944-28.032-29.12-46.272-67.52-49.664-110.08C395.008 588.576 393.728 584.736 393.728 580.448l0-78.784L281.216 501.664 281.216 559.712c1.536 3.072 2.496 6.528 2.496 10.112C283.712 644.32 344.256 704.992 418.816 704.992M103.552-128.864c-0.96 0-1.792 0.128-2.496 0.256L100.992 452.896c0.32 1.28 2.304 3.456 2.56 3.776l98.816 0 0-585.536L103.552-128.864zM281.216-128.864 247.424-128.864 247.424 456.672l33.728 0 641.728 0 0.064-585.536L281.216-128.864zM418.816 385.952c-34.176 0-61.952-27.84-61.952-61.952s27.776-61.952 61.952-61.952c34.112 0 61.888 27.84 61.888 61.952S452.928 385.952 418.816 385.952M418.816 295.904c-15.552 0-28.16 12.544-28.16 28.096 0 15.488 12.608 28.096 28.16 28.096 15.488 0 28.096-12.608 28.096-28.096C446.912 308.448 434.304 295.904 418.816 295.904M745.344 385.952c-34.112 0-61.952-27.84-61.952-61.952s27.84-61.952 61.952-61.952 61.952 27.84 61.952 61.952S779.456 385.952 745.344 385.952M745.344 295.904c-15.488 0-28.096 12.544-28.096 28.096 0 15.488 12.608 28.096 28.096 28.096s28.096-12.608 28.096-28.096C773.44 308.448 760.832 295.904 745.344 295.904"  horiz-adv-x="1024" />

    
    <glyph glyph-name="diannao" unicode="&#58924;" d="M842.394595 96.266763 640.973076 96.266763 640.973076-18.825508l57.549005 0c15.903853 0 28.774503-12.869099 28.774503-28.773324 0-15.903202-12.870649-28.7723-28.774503-28.7723L353.22805-76.371132c-15.904877 0-28.774503 12.869099-28.774503 28.7723 0 15.904225 12.869626 28.773324 28.774503 28.773324l57.549005 0L410.777055 96.266763 180.581034 96.266763c-63.562199 0-115.098011 51.5337-115.098011 115.093295L65.483023 729.279884c0 63.559595 51.535812 115.093295 115.098011 115.093295l661.812537 0c63.561176 0 115.098011-51.5337 115.098011-115.093295l0-517.919826C957.491582 147.801487 905.95577 96.266763 842.394595 96.266763zM583.424071-18.825508 583.424071 96.266763 468.32606 96.266763 468.32606-18.825508 583.424071-18.825508zM899.942577 729.279884c0 31.779797-25.767906 57.546647-57.547982 57.546647L180.581034 786.826532c-31.781099 0-57.549005-25.76685-57.549005-57.546647l0-402.826532L899.942577 326.453353 899.942577 729.279884zM899.942577 268.906705 123.033052 268.906705l0-57.546647c0-31.779797 25.767906-57.545624 57.549005-57.545624l661.812537 0c31.781099 0 57.547982 25.76685 57.547982 57.545624L899.942577 268.906705z"  horiz-adv-x="1024" />

    
    <glyph glyph-name="tubiao" unicode="&#58919;" d="M490.78528 459.53664c17.71008 0 32.04096 14.33088 32.04096 32.04224 0 17.71008-14.33088 32.04224-32.04096 32.04224-17.71008 0-32.04224-14.33088-32.04224-32.04224C458.74304 473.86752 473.07392 459.53664 490.78528 459.53664zM490.78528 139.10016c-17.71008 0-32.04224-14.33216-32.04224-32.04096 0-17.71392 14.33088-32.04224 32.04224-32.04224 17.71008 0 32.04096 14.32832 32.04096 32.04224C522.82624 124.768 508.49536 139.10016 490.78528 139.10016zM298.53184 331.36768c-17.71008 0-32.04224-14.33088-32.04224-32.04096 0-17.71136 14.33216-32.04096 32.04224-32.04096 17.71008 0 32.04224 14.3296 32.04224 32.04096C330.57408 317.0368 316.24192 331.36768 298.53184 331.36768zM650.99648 299.32672c0-17.71136 14.33088-32.04096 32.04224-32.04096 17.7088 0 32.04096 14.3296 32.04096 32.04096 0 17.71008-14.33216 32.04096-32.04096 32.04096C665.32736 331.36768 650.99648 317.0368 650.99648 299.32672zM332.20096 186.03776c-12.57984-12.51712-12.57984-32.79232 0-45.31072 12.51584-12.51584 32.7296-12.51584 45.30944 0 12.51584 12.5184 12.51584 32.7936 0 45.31072C364.93184 198.55232 344.71808 198.55232 332.20096 186.03776zM332.20096 457.90976c-12.57984-12.51584-12.57984-32.7616-0.06272-45.30944 12.57984-12.51584 32.7936-12.51584 45.37216 0 12.51584 12.54784 12.51584 32.7936 0 45.30944C364.93184 470.45632 344.71808 470.45632 332.20096 457.90976zM604.06016 186.03776c-12.5184-12.51712-12.5184-32.79232 0-45.31072 12.51584-12.51584 32.79232-12.51584 45.30688 0 12.51712 12.5184 12.51712 32.7936 0 45.31072C636.85248 198.55232 616.576 198.55232 604.06016 186.03776zM811.2064 363.40992c-2.25408 0-4.12928-1.06368-6.31936-1.28384-11.14368 55.91808-37.48992 105.92128-73.59744 147.19488L685.29152 759.61856C679.65824 789.9712 653.18784 812 622.27072 812L365.9328 812c-30.85312 0-57.3248-22.0288-63.01952-52.38144l-44.87296-241.87904c-53.82016-57.29536-87.67744-133.58336-87.67744-218.4128 0-82.74944 32.48-157.16096 83.98592-213.984l45.24672-246.32448c5.63328-30.35264 32.10496-52.38144 63.01952-52.38144l256.3392 0c30.85312 0 57.3248 22.0288 63.01952 52.38144l45.62304 246.13632c38.112 41.99168 65.77408 93.56032 77.29024 151.38688 2.19008-0.25088 4.06528-1.31456 6.31936-1.31456 35.35872 0 64.0832 28.72448 64.0832 64.09984C875.2896 334.71616 846.56512 363.40992 811.2064 363.40992zM365.9328 747.91552l256.3392 0 32.04096-172.6016c-47.31136 27.50464-101.50784 44.43264-160.2112 44.43264-58.64064 0-112.89856-16.92928-160.2112-44.43264L365.9328 747.91552zM618.95552-149.28 362.61504-149.28l-32.04224 172.60288c47.31264-27.47264 101.50784-44.4352 160.2112-44.4352 58.64064 0 112.89856 16.96256 160.2112 44.4352L618.95552-149.28zM490.78528 42.97472c-141.37344 0-256.33792 115.02336-256.33792 256.35072 0 141.34144 114.9632 256.33664 256.33792 256.33664 141.30944 0 256.33664-114.99392 256.33664-256.33664C747.12064 157.99936 632.09472 42.97472 490.78528 42.97472zM649.11744 458.69184c-3.8784 3.88096-10.1376 4.19328-14.51904 0.68864l-166.34368-137.3056c-6.13376-6.16448-9.51168-14.30016-9.51168-23.03104 0-8.41728 3.25376-16.39808 9.26208-22.37312 6.00704-5.97376 14.01856-9.29152 22.65472-9.35424 8.01024 0.06272 16.33408 3.0336 22.40384 8.88576l59.20256 71.28064 77.72672 96.78464C653.37472 448.55424 652.9984 454.81216 649.11744 458.69184z"  horiz-adv-x="1024" />

    
    <glyph glyph-name="1" unicode="&#58921;" d="M769.536-224h-518.784c-24.672 0-47.936 9.088-63.744 24.928-14.4 14.432-22.016 33.216-21.984 54.368 0 8.064-0.192 21.536-0.416 39.104-1.056 75.68-2.976 216.576 3.168 341.696 6.688 135.84 20.704 286.176 74.304 371.616 45.504 72.576 106.4 146.72 212.896 146.72 62.624 0 129.824-26.336 170.624-44.8l0.032 30.208c0 39.52 17.952 59.584 53.28 59.584 12.736 0 31.84 0.16 49.664 0.32 15.776 0.128 30.56 0.256 39.2 0.256 55.584 0 55.584-39.424 55.584-58.368l-0.128-13.088c-0.32-21.888-0.768-54.944 3.36-90.976 1.6-13.92 6.112-25.76 11.84-40.704 6.304-16.48 13.472-35.168 18.752-61.28 7.744-38.144 11.104-257.376 10.016-651.584l-0.064-21.376c0.032-43.072-33.504-86.624-97.6-86.624zM454.976 690.432c-70.912 0-114.72-46.656-158.656-116.704-46.048-73.408-58.72-220.672-64.608-340.768-6.048-123.136-4.16-262.688-3.136-337.696 0.256-17.952 0.448-31.712 0.448-40.032 0-5.152 1.76-7.552 3.296-9.088 3.776-3.808 10.848-6.144 18.432-6.144h518.784c20.448 0 33.632 8.864 33.632 22.592l0.064 21.568c1.504 530.304-5.6 623.328-8.704 638.688-4.256 20.928-10.112 36.288-15.808 51.136-6.432 16.896-13.12 34.336-15.616 56.256-4.64 40.16-4.128 75.68-3.808 99.2l0.064 6.528c-8.288-0.032-19.008-0.128-30.176-0.224-13.536-0.096-27.776-0.224-39.488-0.288v-57.248c0-36.768-24.736-46.592-39.392-46.592l-10.944 1.472c-1.92 0.544-7.712 2.848-16.384 7.040-25.824 12.448-104.384 50.304-168 50.304zM306.176 108.864c-45.28 0-45.28 56.608-45.28 80.736 0 28.736 1.376 83.52 10.752 127.328l2.528 12c10.72 50.912 25.376 120.672 47.584 157.184 35.616 58.528 82.72 92.096 129.248 92.096 16.768 0 31.2-8.096 39.616-22.208 9.76-16.352 9.664-37.92-0.256-56.224-17.312-32.032-49.568-104.48-60.832-172.768-4.768-28.832-8.288-57.376-11.456-83.2-4.64-37.632-8.64-70.080-14.976-90.048-14.24-44.896-72.192-44.896-96.928-44.896zM451.008 546.24c-34.56 0-72.672-28.672-101.888-76.704-19.36-31.84-33.984-101.248-43.616-147.168l-2.56-12.064c-8.736-40.96-10.048-93.184-10.048-120.672 0-43.232 7.104-48.736 13.28-48.736 41.568 0 61.408 6.752 66.464 22.592 5.44 17.12 9.28 48.256 13.696 84.288 3.232 26.208 6.784 55.232 11.648 84.512 11.968 72.48 46.016 148.96 64.256 182.752 4.512 8.352 4.864 18.016 0.896 24.64-2.592 4.32-6.688 6.56-12.128 6.56zM292.928 189.568h-32c0 37.344 3.168 75.136 10.592 126.304 6.656 46.048 25.536 129.408 50.304 170.208l27.328-16.64c-19.744-32.48-38.432-105.76-45.984-158.176-7.168-49.568-10.24-85.952-10.24-121.696zM440.128-86.624c-8.832 0-16 7.168-16 16s7.168 16 16 16c63.648 0 129.472 7.584 179.904 62.56 47.008 51.328 49.408 94.208 49.408 210.72l0 284.704c0 8.832 7.168 16 16 16s16-7.168 16-16v-284.704c0-117.344-2.336-171.776-57.856-232.352-58.912-64.288-135.904-72.928-203.456-72.928z"  horiz-adv-x="1024" />

    
    <glyph glyph-name="shumajiadian" unicode="&#58922;" d="M512.5 430.268c-123.997 0-224.511-100.557-224.511-224.554 0-124.027 100.513-224.592 224.511-224.592 123.99 0 224.511 100.565 224.511 224.592C737.011 329.711 636.49 430.268 512.5 430.268zM511.327 45.11c-88.114 0-159.539 71.46-159.539 159.605 0 88.113 71.426 159.573 159.539 159.573 88.106 0 159.54-71.46 159.54-159.573C670.867 116.569 599.433 45.11 511.327 45.11zM900.153 555.405l-148.772 0-55.201 112.681c-5.431 10.241-15.121 16.145-25.226 16.576-1.037 0.113-2.088 0.171-3.153 0.171L363.198 684.833c-6.112 0-11.8-1.911-16.57-5.189-4.767-2.825-8.903-7.068-11.814-12.558L279.178 555.405l-85.618 0 0 32.145c0 18.114-14.677 32.816-32.791 32.816-18.107 0-32.791-14.702-32.791-32.816l0-32.145-4.136 0c-67.293 0-121.842-54.574-121.842-121.897l0-458.625c0-67.317 54.549-121.891 121.842-121.891l776.311 0c67.299 0 121.847 52.574 121.847 119.891L1022 433.507C1022 500.831 967.452 555.405 900.153 555.405zM961.08-25.118c0-33.671-27.274-60.955-60.927-60.955l-776.311 0c-33.646 0-60.927 27.284-60.927 60.955L62.915 431.507c0 33.707 27.28 60.961 60.927 60.961l177.975 0 0 0.152c9.515 0.965 18.474 6.77 23.612 16.461l55.429 111.284 269.66 0 54.503-111.284c5.241-9.878 14.444-15.726 24.161-16.518l0-0.095 170.97 0c33.652 0 60.927-27.254 60.927-60.961L961.079-25.118zM799.821 427.768c-17.654 0-31.959-14.297-31.959-31.951 0-17.648 14.305-31.977 31.959-31.977 17.647 0 31.958 14.329 31.958 31.977C831.78 413.471 817.469 427.768 799.821 427.768z"  horiz-adv-x="1024" />

    
    <glyph glyph-name="xiebaopeishi" unicode="&#58923;" d="M177.193 682.95c21.434-0.286 65.125-21.714 115.003-69.194 50.095-47.687 94.168-109.882 117.893-166.372 39.792-94.744 74.588-168.862 115.064-222.632 20.141-26.756 41.87-48.79 66.429-67.361 22.557-17.057 47.806-31.572 79.458-45.681 26.973-12.022 53.058-23.351 78.284-34.306 59.956-26.038 111.735-48.526 151.584-69.851 19.045-10.192 34.16-19.539 44.925-27.781 3.584-2.744 6.348-5.107 8.459-7.071-6.678-8.162-18.899-20.247-37.119-32.605-27.221-18.463-48.188-24.436-54.078-24.436l-296.64 0c-7.312 0-22.587 9.804-43.529 37.32-25.525 33.536-50.578 80.925-77.103 131.097-11.922 22.549-24.249 45.867-36.932 68.44-18.883 33.608-41.454 65.243-63.555 89.079-14.25 15.369-28.556 27.772-42.52 36.862-21.108 13.741-42.546 20.708-63.721 20.708-20.726 0-40.298-8.834-55.112-24.874-7.27-7.872-13.389-17.403-18.709-29.138-6.438-14.203-12.067-32.557-17.206-56.111-7.442-34.105-14.172-80.778-20.003-138.721-0.571-5.671-1.122-11.339-1.654-16.98-3.535 63.121-9.031 121.409-16.461 174.394-11.999 85.568-26.548 140.758-36.176 177.278-4.005 15.19-8.542 32.401-8.774 37.841 0.02 40.441 10.818 103.183 20.51 134.252 16.992 54.469 39.819 85.554 55.977 102.04C159.02 677.039 173.235 682.392 177.193 682.95M176.762 746.953c-40.449 0-113.666-46.786-152.348-170.786-11.617-37.24-23.413-106.87-23.413-153.423 0-49.518 66.166-157.577 66.166-570.084 26.001 0 110.95 0 110.95 0s16.014 382.506 60.98 382.506c36 0 84.161-60.893 114-114 68.656-122.192 127.924-269.506 213.36-269.506 116.64 0 245.425 0 296.64 0 57 0 159.905 75.506 159.905 121.924 0 64.444-148.651 117.577-325.905 196.582-102.162 45.536-144 102-228 302C412.479 606.97 269.096 746.953 176.762 746.953L176.762 746.953z"  horiz-adv-x="1024" />

    
    <glyph glyph-name="youjiantou" unicode="&#59020;" d="M511.698636 749.001177C264.159844 749.001177 63.489498 548.332878 63.489498 300.794086s200.670346-448.208115 448.209138-448.208115 448.208115 200.670346 448.208115 448.208115S759.237429 749.001177 511.698636 749.001177zM724.462414 281.459738c-0.678452-1.480724-1.472538-2.616594-1.939165-3.267417-0.217964-0.38988-0.433882-0.801249-0.652869-1.215688-1.257643-2.382257-2.926656-5.544273-5.808286-8.559956l-0.189312-0.192382c-0.179079-0.182149-0.350994-0.345877-0.512676-0.497327-0.575098-0.823761-1.208525-1.585101-1.889023-2.266623L451.314361 12.787626c-9.376555-9.018398-21.684882-13.984503-34.663474-13.984503-13.719466 0-26.497491 5.434779-35.977399 15.299451-19.085684 19.818371-18.500353 51.494815 1.308809 70.606081l225.702462 217.537502L381.148301 516.548988c-19.995403 18.932188-20.87647 50.610678-1.966795 70.617337 9.41544 9.928117 22.650883 15.618723 36.31509 15.618723 12.811794 0 24.995277-4.846378 34.305317-13.646811l264.368086-250.048963C729.758024 324.367991 733.895251 301.207501 724.462414 281.459738z"  horiz-adv-x="1024" />

    
    <glyph glyph-name="iconfontyuandian" unicode="&#58948;" d="M736.12109375 396.36126709C736.12109375 271.10806274000004 634.77386474 169.76660156000003 509.52807617 169.76660156000003c-125.24661255 0-226.59301758 101.34146118-226.59301758 226.59466553C282.93505859 521.60458374 384.2822876 622.95263672 509.52807617 622.95263672 634.7755127 622.95593262 736.12109375 521.60458374 736.12109375 396.36126709z"  horiz-adv-x="1024" />

    
    <glyph glyph-name="left" unicode="&#59021;" d="M510.903527 749.578322c247.683079 0 448.462918-200.814632 448.462918-448.547853 0-247.730151-200.779839-448.546829-448.462918-448.546829-247.682056 0-448.460872 200.816678-448.460872 448.546829C62.442656 548.764714 263.221472 749.578322 510.903527 749.578322L510.903527 749.578322zM298.00058 281.668493c0.683569-1.494027 1.455141-2.629897 1.956561-3.266393 0.208754-0.394996 0.422625-0.819668 0.636496-1.197268 1.240247-2.38021 2.939959-5.533017 5.819542-8.593725l0.166799-0.165776 0.500397-0.50142c0.558725-0.810459 1.210571-1.591241 1.876744-2.2656l262.321474-252.867148c9.395998-9.05012 21.700231-14.013155 34.68701-14.013155 13.71435 0 26.521027 5.433756 35.977399 15.308661 19.10922 19.825534 18.502399 51.534723-1.303692 70.677713L414.795633 302.486634l226.647997 214.461443c20.004613 18.946514 20.881586 50.640354 1.985214 70.677713-9.426697 9.930163-22.657023 15.642259-36.340673 15.642259-12.836353 0-24.990161-4.862751-34.30941-13.653975L308.243875 339.367613c-15.592117-14.71719-19.742646-37.912471-10.272971-57.662281L298.00058 281.668493zM298.00058 281.668493"  horiz-adv-x="1024" />

    
    <glyph glyph-name="biaoqian" unicode="&#59018;" d="M188.581518 742.575838l0-885.151675 323.420017 305.347406 323.417971-305.347406L835.419506 742.575838 188.581518 742.575838zM188.581518 742.575838"  horiz-adv-x="1024" />

    
    <glyph glyph-name="rongyuqiapian" unicode="&#58892;" d="M903.831618 508.616318c0 66.243727-53.903677 120.146381-120.142288 120.146381L209.267653 628.762699c-66.240657 0-120.143311-53.902654-120.143311-120.146381l0-416.97988c0-66.236564 53.902654-120.139218 120.143311-120.139218l574.420655 0c66.23861 0 120.142288 53.903677 120.142288 120.139218L903.830595 508.616318zM852.512812 91.636438c0-38.013779-30.810726-68.821435-68.823482-68.821435L209.267653 22.815003c-38.013779 0-68.824505 30.806633-68.824505 68.821435L140.443148 508.616318c0 37.95238 30.871101 68.824505 68.824505 68.824505l574.420655 0c37.95238 0 68.823482-30.871101 68.823482-68.824505L852.511789 91.636438zM495.187591 340.760332c-4.684696 14.412244 8.532327 38.074154-0.199545 50.080605-8.809643 12.104689-35.458583 6.814196-47.572482 15.637142-11.993149 8.733918-15.146978 35.745109-29.560246 40.431851-13.908778 4.510734-32.28838-15.349593-47.698349-15.349593-15.409968 0-33.789571 19.860327-47.695279 15.349593-14.411221-4.686742-17.555841-31.711236-29.559223-40.445154-12.104689-8.80862-38.764885-3.505847-47.574528-15.623839-8.729825-12.006452 4.483104-35.668361-0.198521-50.080605-4.510734-13.905708-29.256324-25.220405-29.256324-40.631396 0-15.410991 24.74559-26.725688 29.256324-40.637536 4.681626-14.405081-8.531304-38.066991 0.198521-50.077535 8.80862-12.104689 35.456536-6.800893 47.574528-15.626909 12.003382-8.730848 15.146978-35.759435 29.559223-40.442084 13.906731-4.50664 32.285311 15.356756 47.695279 15.356756 15.410991 0 33.790594-19.863397 47.698349-15.356756 14.412244 4.682649 17.553795 31.711236 29.560246 40.442084 12.102642 8.810666 38.762839 3.508917 47.572482 15.626909 8.731872 11.996219-4.485151 35.671431 0.199545 50.077535 4.510734 13.912871 29.256324 25.227568 29.256324 40.637536C524.443915 315.538905 499.698325 326.854625 495.187591 340.760332zM567.544549 446.909931l209.55162 0 0-60.565401-209.55162 0 0 60.565401ZM567.544549 213.24717l209.55162 0 0-60.563354-209.55162 0 0 60.563354ZM567.544549 330.087249l209.55162 0 0-60.569494-209.55162 0 0 60.569494Z"  horiz-adv-x="1024" />

    
    <glyph glyph-name="duigou" unicode="&#58912;" d="M60.217477 262.089439c0 0 250.197342-104.557334 374.563838-330.628186 149.378146 279.762705 436.109566 540.713972 521.05012 560.013527 0 115.776863 0 163.394371 0 341.442486-342.237595-226.070852-506.576477-642.342604-506.576477-642.342604l-180.049702 191.614086L60.217477 262.089439z"  horiz-adv-x="1024" />

    
    <glyph glyph-name="guanbi" unicode="&#58913;" d="M512 812C229.262222 812 0 582.766222 0 300S229.262222-212 512-212s512 229.262222 512 512S794.766222 812 512 812zM731.221333 120.999111l-40.220444-40.220444L512 259.779556l-179.000889-179.000889-40.220444 40.220444L471.779556 300l-179.000889 179.000889 40.220444 40.220444L512 340.248889l178.972444 179.000889 40.220444-40.220444L552.220444 300 731.221333 120.999111z"  horiz-adv-x="1024" />

    
    <glyph glyph-name="icontongxie" unicode="&#58971;" d="M937.443134-31.667865l-0.148379 298.18324c-0.005117 10.883885-5.625114 21.033036-15.010879 26.542516-9.359158 5.494131-20.774139 5.717212-30.263258 0.462534-1.620917-0.836041-31.954783-16.160051-72.504314-16.160051-65.957201 0-121.523751 39.10974-165.155481 116.244514-4.339842 7.671727-11.765975 13.107529-20.390399 14.924921-8.624425 1.816369-17.613146-0.159636-24.678052-5.426593-85.145216-63.472614-188.022281-113.88784-281.81648-138.853441L148.225391 264.249775c-18.216897 33.134655-19.896142 83.820034-3.254114 129.052215 12.844539 34.908044 34.286897 59.483766 58.179051 67.169819 1.030469-0.463558 2.094708-0.87902 3.195785-1.235131 20.921495-6.748704 87.702458-35.014468 68.632123-115.380844-3.914146-16.496719 6.28617-33.04358 22.781866-36.957727 2.38328-0.565888 4.76656-0.836041 7.114025-0.836041 13.899568 0 26.495444 9.505491 29.843702 23.61893 14.697747 61.943794-5.101181 104.72004-24.300452 129.697921-7.005554 9.114588-14.691607 16.949021-22.585391 23.682375 27.89328 9.151427 56.512085 20.2236 85.066421 32.971949 53.42784 23.852244 104.174618 52.294017 151.253866 84.749196 62.463634-92.089371 136.350434-115.493407 189.484585-118.173446 25.811876-1.302669 49.009204 2.139733 67.564815 6.751774L781.201673 374.045413c0-16.954137 13.745049-30.699186 30.699186-30.699186s30.699186 13.745049 30.699186 30.699186L842.600045 532.864582c0 10.825556-5.700839 20.849864-15.005762 26.384927-9.3039 5.533017-20.832468 5.758144-30.347169 0.591471-0.336668-0.182149-34.926464-18.213827-80.516802-15.914458-62.446237 3.151783-115.290793 42.192961-157.063175 116.040876-4.339842 7.671727-11.765975 13.107529-20.390399 14.924921-8.625448 1.815345-17.613146-0.160659-24.678052-5.426593-96.105848-71.641667-214.808344-126.678144-317.528843-147.221016-48.073902-9.614985-88.065731-48.885384-109.720937-107.742886-11.958356-32.501228-17.155728-69.082378-14.634302-103.003955 2.824325-38.001499 14.932084-71.533196 35.014468-96.971565 5.821589-7.374968 14.699794-11.676947 24.095791-11.676947l79.685877 0c-11.818163-15.487739-21.800515-33.865295-29.472242-54.716182-11.958356-32.501228-17.154705-69.081355-14.632255-103.001909 2.825348-38.000476 14.934131-71.53115 35.015491-96.969519 5.821589-7.373944 14.699794-11.675924 24.094768-11.675924l680.226422 0c0.00614 0 0.014326 0 0.020466 0 16.95516 0 30.699186 13.745049 30.699186 30.699186C937.4636-32.430228 937.456437-32.047512 937.443134-31.667865zM242.91703-2.114782c-18.212804 33.133631-19.896142 83.820034-3.25616 129.048121 13.597693 36.956703 36.829813 62.33572 62.407352 68.350714 0.657986-0.264013 1.323135-0.5137 2.007727-0.734734 20.921495-6.749728 87.700411-35.015491 68.6311-115.38289-3.914146-16.496719 6.28617-33.042557 22.781866-36.956703 2.38328-0.565888 4.76656-0.836041 7.114025-0.836041 13.899568 0 26.495444 9.505491 29.843702 23.61893 14.697747 61.943794-5.101181 104.72004-24.299429 129.697921-6.838755 8.896624-14.323217 16.58063-22.017456 23.204491 26.752294 8.916067 54.133921 19.572778 81.46029 31.771611 53.428863 23.853267 104.167454 52.2889 151.247726 84.74408 65.73719-97.036034 144.224776-118.448716 200.677509-118.448716 21.331841 0 40.555671 3.089361 56.401568 7.03216l0.11154-225.107921L242.91703-2.113759z"  horiz-adv-x="1024" />

    
    <glyph glyph-name="tianjiahaoyou" unicode="&#58936;" d="M762.88-137.984q-43.008 0-81.408 16.384t-67.072 45.056-45.056 67.072-16.384 81.408 16.384 81.408 45.056 66.56 67.072 44.544 81.408 16.384 81.408-16.384 66.56-44.544 44.544-66.56 16.384-81.408-16.384-81.408-44.544-67.072-66.56-45.056-81.408-16.384zM866.304 105.728h-75.776v70.656q0 14.336-9.216 24.576t-23.552 10.24-22.528-10.24-8.192-24.576v-70.656h-66.56q-14.336 0-24.576-10.24t-10.24-24.576 10.24-21.504 24.576-7.168h66.56v-72.704q0-14.336 8.192-24.576t22.528-10.24 23.552 10.24 9.216 24.576v72.704h75.776v-2.048q14.336 0 24.576 8.192t10.24 22.528-10.24 24.576-24.576 10.24zM613.376 360.704q-4.096-16.384-8.192-29.696-4.096-11.264-10.24-23.040t-13.312-17.92q-9.216-7.168-12.8-15.36t-6.144-16.896-5.632-17.92-10.24-18.432q-23.552-30.72-35.328-59.392t-16.384-55.296-2.56-52.736 8.192-50.688q4.096-18.432 12.288-38.4t24.064-40.96 40.448-40.96 61.44-38.4q-24.576-5.12-57.344-9.216-27.648-3.072-68.096-5.632t-92.672-2.56q-26.624 0-61.952 2.048t-72.704 5.12-73.728 7.168-66.56 8.704-51.2 9.728-26.112 9.216q-9.216 8.192-14.336 45.568t3.072 97.792q5.12 33.792 27.136 51.712t51.712 28.16 61.952 18.944 56.832 24.064q19.456 12.288 29.696 23.040t14.336 22.016 4.096 23.552-1.024 26.624q-2.048 21.504-14.848 33.792t-27.136 24.576q-8.192 6.144-14.336 18.432t-10.24 23.552q-5.12 13.312-8.192 29.696-7.168 2.048-13.312 6.144-5.12 4.096-11.264 12.288t-11.264 24.576q-5.12 15.36-3.584 28.672t5.632 22.528q4.096 11.264 11.264 19.456 0 34.816 4.096 69.632 4.096 29.696 12.8 63.488t28.16 60.416q18.432 25.6 39.424 41.984t43.52 25.6 45.056 12.8 43.008 3.584q26.624 0 51.2-6.144t45.568-16.384 37.376-23.040 26.624-26.112q23.552-29.696 34.304-65.536t15.872-67.584q5.12-36.864 4.096-73.728 6.144-5.12 10.24-12.288 4.096-6.144 6.144-16.384t0-25.6q-2.048-19.456-8.192-30.72t-13.312-17.408q-8.192-7.168-17.408-10.24z"  horiz-adv-x="1024" />

    
    <glyph glyph-name="biaoqing2" unicode="&#58890;" d="M512-95.99400000000003c-265.03200000000004 0-480 214.78199999999998-480 479.55600000000004C32 648.354 246.96800000000002 864 512 864s480-215.64600000000002 480-480.43800000000005C992 118.78800000000001 777.0319999999999-95.99400000000003 512-95.99400000000003zM512 804.006c-231.9 0-420-188.7-420-420.39C92 151.9380000000001 280.1-36 512-36s420 187.938 420 419.616C932 615.306 743.9 804.006 512 804.006zM512 84.00599999999997c-145.12800000000001 0-266.154 103.068-293.952 240l62.436 0C307.25 220.6679999999999 400.298 144.01199999999994 512 144.01199999999994s204.744 76.656 231.51 179.994l62.442 0C778.148 187.07400000000007 657.134 84.00599999999997 512 84.00599999999997zM692 504.006c-33.138 0-60 26.862-60 59.994 0 33.144 26.862 60.006 60 60.006S752 597.144 752 564C752 530.8679999999999 725.138 504.006 692 504.006zM332 504.006c-33.138 0-60 26.862-60 59.994 0 33.144 26.862 60.006 60 60.006S392 597.144 392 564C392 530.8679999999999 365.138 504.006 332 504.006z"  horiz-adv-x="1024" />

    
    <glyph glyph-name="youxiang" unicode="&#58986;" d="M902.870101-35.033342l-781.741225 0c-30.829177 0-55.838805 25.010652-55.838805 55.838805L65.290071 579.194537c0 30.82713 25.009628 55.837782 55.838805 55.837782l781.741225 0c30.828153 0 55.838805-25.010652 55.838805-55.837782L958.708906 20.805463C958.709929-10.022691 933.698254-35.033342 902.870101-35.033342L902.870101-35.033342zM840.269282 516.629534c-10.868546 10.906408-28.572784 10.906408-39.478169 0l-96.772117-95.718111-136.179678-136.179678 0 0.326435c-15.050803-14.358024-35.154696-23.448062-57.583544-23.448062-20.90412 0-39.407561 8.433075-54.094066 21.085245l0-1.453096-182.820998 182.784159 1.345649 0.836042-51.512262 51.766042c-10.907432 10.906408-28.574831 10.906408-39.480216 0-10.906408-10.906408-10.906408-28.572784 0-39.479193l176.641246-177.623621-176.641246-176.638176c-10.906408-10.906408-10.906408-28.576877 0-39.482263 10.905385-10.905385 28.6086-10.905385 39.480216 0l176.531752 176.499006 46.167529-46.389586c2.290162-2.616597 4.689817-5.052068 7.307437-7.378045l2.980894-2.981917 0 0.546446c14.395886-11.636026 32.427583-18.868762 52.348304-18.868762 23.195305 0 44.170033 9.452289 59.330329 24.683193l0-1.852186 53.764561 53.183323 177.441472-177.440449c10.905385-10.905385 28.610647-10.905385 39.480216 0 10.905385 10.905385 10.905385 28.575854 0 39.482263l-177.223508 177.221461 178.967223 177.041359C851.176713 488.05675 851.176713 505.723125 840.269282 516.629534L840.269282 516.629534zM840.269282 516.629534"  horiz-adv-x="1024" />

    
    <glyph glyph-name="cha" unicode="&#58942;" d="M886.528-12.032c-28.096-28.096-73.856-28.096-102.016 0L138.304 634.176c-28.096 28.16-28.16 73.856 0 102.016 28.032 28.16 73.792 28.16 102.08 0l646.144-646.144C914.624 61.76 914.752 16.128 886.528-12.032L886.528-12.032zM885.76 634.496 239.616-11.648c-28.224-28.224-73.92-28.224-102.08 0-28.16 28.096-28.16 73.728 0.064 102.016L783.744 736.448c28.224 28.16 73.984 28.16 102.016 0.064C913.984 708.352 913.856 662.656 885.76 634.496L885.76 634.496z"  horiz-adv-x="1024" />

    
    <glyph glyph-name="gantanhao" unicode="&#58941;" d="M465.769 106.286c0-12.096 4.971-24.193 13.587-32.809s20.547-13.587 32.809-13.587c12.096 0 24.193 4.971 32.809 13.587 8.617 8.617 13.587 20.547 13.587 32.809 0 12.096-4.971 24.193-13.587 32.809-8.617 8.617-20.547 13.587-32.809 13.587-12.096 0-24.193-4.971-32.809-13.587-8.617-8.782-13.587-20.714-13.587-32.809v0zM465.769 106.286zM571.322 648.789c0 32.809-26.511 59.322-59.322 59.322s-59.322-26.511-59.322-59.322c0-1.161 0-2.319 0.166-3.479v0l12.925-377.964c0-25.518 20.714-46.231 46.231-46.231s46.231 20.714 46.231 46.231l12.925 377.964c0 1.161 0.166 2.319 0.166 3.479v0zM571.322 648.789z"  horiz-adv-x="1024" />

    
    <glyph glyph-name="faxian" unicode="&#58896;" d="M511.466 626.431c169.452 0 315.308-99.391 383.565-242.84h66.514c-72.089 177.91-246.292 303.526-450.079 303.526-203.755 0-377.958-125.617-450.047-303.526h66.515c68.256 143.449 214.111 242.84 383.532 242.84zM511.466 140.752c-169.421 0-315.277 99.391-383.532 242.84h-66.515c72.088-177.941 246.291-303.558 450.047-303.558 203.786 0 377.99 125.617 450.079 303.558h-66.514c-68.257-143.449-214.111-242.84-383.565-242.84zM349.594 383.576c0-89.412 72.474-161.886 161.885-161.886 89.413 0 161.886 72.474 161.886 161.886 0 89.413-72.473 161.886-161.886 161.886-89.412 0-161.885-72.473-161.885-161.886zM612.678 383.576c0-55.88-45.32-101.198-101.199-101.198s-101.166 45.318-101.166 101.198c0 55.88 45.287 101.199 101.166 101.199s101.199-45.319 101.199-101.199z"  horiz-adv-x="1024" />

    
    <glyph glyph-name="bangzhurukou" unicode="&#58893;" d="M507.4488888888889 777.8986666666667c-219.5911111111111 0-397.5395555555555-177.94844444444445-397.5395555555555-397.5395555555555S287.85777777777776-17.180444444444447 507.4488888888889-17.180444444444447s397.5395555555555 177.94844444444445 397.5395555555555 397.5395555555555S727.04 777.8986666666667 507.4488888888889 777.8986666666667zM541.3546666666666 106.04088888888896c-9.102222222222222-9.102222222222222-19.456000000000003-13.539555555555555-31.288888888888888-13.539555555555555-14.449777777777776 0-26.168888888888887 4.551111111111111-35.157333333333334 13.767111111111111-8.988444444444445 9.216-13.425777777777778 19.683555555555554-13.425777777777778 31.516444444444446 0 12.515555555555554 4.551111111111111 23.324444444444445 13.767111111111111 32.42666666666666 9.216 9.102222222222222 20.138666666666666 13.539555555555555 32.995555555555555 13.539555555555555 12.74311111111111 0 23.779555555555554-4.551111111111111 32.995555555555555-13.539555555555555 9.216-9.102222222222222 13.767111111111111-19.91111111111111 13.767111111111111-32.42666666666666C554.8942222222222 125.6106666666667 550.3431111111112 115.0293333333334 541.3546666666666 106.04088888888896zM651.9466666666667 487.7653333333333c-7.964444444444444-19.228444444444442-28.785777777777778-44.71466666666666-62.23644444444445-76.57244444444444-25.372444444444447-23.89333333333333-42.32533333333333-42.666666666666664-51.08622222222222-56.092444444444446-8.64711111111111-13.539555555555555-13.084444444444443-28.103111111111108-13.084444444444443-43.80444444444444 0-17.635555555555552 4.209777777777778-35.95377777777778 12.629333333333333-55.068444444444445l-67.69777777777777 0c-6.030222222222222 17.86311111111111-9.102222222222222 36.977777777777774-9.102222222222222 57.23022222222222 0 15.928888888888888 3.640888888888889 32.08533333333333 10.808888888888887 48.355555555555554 7.281777777777778 16.270222222222223 25.71377777777778 38.79822222222222 55.40977777777778 67.584 30.378666666666668 28.785777777777778 49.038222222222224 50.28977777777778 55.97866666666667 64.85333333333332 6.826666666666667 14.449777777777776 10.353777777777777 28.21688888888889 10.353777777777777 41.30133333333333 0 23.210666666666665-8.192 41.41511111111111-24.576000000000004 54.84088888888889-16.384 13.425777777777778-37.319111111111106 20.138666666666666-62.69155555555555 20.138666666666666-44.145777777777774 0-82.83022222222222-17.408-115.93955555555556-52.11022222222222l0 74.29688888888889c40.27733333333333 25.14488888888889 82.26133333333333 37.660444444444444 125.72444444444443 37.660444444444444 44.373333333333335 0 80.09955555555555-11.264000000000001 107.06488888888887-33.678222222222225 26.96533333333333-22.41422222222222 40.39111111111111-53.13422222222222 40.39111111111111-91.93244444444444C663.8933333333333 525.7671111111111 659.911111111111 506.88 651.9466666666667 487.7653333333333z"  horiz-adv-x="1024" />

    
    <glyph glyph-name="location" unicode="&#58928;" d="M511.998 832.486c-200.688 0-363.371-150.581-363.371-336.355 0-280.296 302.807-560.618 363.371-560.618 60.567 0 363.373 280.322 363.373 560.618 0 185.774-162.684 336.355-363.373 336.355zM511.998 294.304c-100.343 0-181.697 80.316-181.697 179.394s81.354 179.394 181.697 179.394c100.345 0 181.674-80.316 181.674-179.394s-81.329-179.394-181.674-179.394z"  horiz-adv-x="1024" />

    
    <glyph glyph-name="xinlang" unicode="&#58932;" d="M892.852224 256.371712c0-26.43968-7.05024-53.552128-21.136384-81.34656-14.096384-27.792384-34.84672-54.421504-62.267392-79.874048-27.414528-25.472-59.507712-48.31232-96.252928-68.52096-36.75648-20.20864-79.78496-36.343808-129.102848-48.395264-49.323008-12.045312-100.82304-18.079744-154.520576-18.079744-53.69856 0-106.062848 6.51776-157.089792 19.539968-51.037184 13.021184-96.825344 31.090688-137.383936 54.219776-40.557568 23.128064-73.218048 52.482048-97.967104 88.055808-24.76032 35.56352-37.131264 74.341376-37.131264 116.3264 0 44.6976 13.227008 92.321792 39.70048 142.857216 26.468352 50.528256 64.068608 100.675584 112.823296 150.444032 64.352256 65.6896 129.386496 111.5648 195.081216 137.608192 65.687552 26.038272 112.618496 24.685568 140.81024-4.082688 24.75008-24.875008 28.563456-65.508352 11.424768-121.867264-1.527808-5.448704-1.713152-9.330688-0.571392-11.659264 1.142784-2.333696 3.042304-3.700736 5.71392-4.081664 2.656256-0.390144 5.424128-0.297984 8.280064 0.293888 2.85696 0.576512 5.430272 1.255424 7.714816 2.036736l3.427328 1.165312c52.926464 22.938624 99.769344 34.403328 140.522496 34.403328 40.74496 0 69.878784-11.860992 87.402496-35.56864 17.13664-24.486912 17.13664-59.094016 0-103.788544-0.771072-5.05344-1.626112-8.94976-2.568192-11.664384-0.95744-2.71872-0.103424-5.15584 2.568192-7.293952 2.656256-2.134016 4.94592-3.58912 6.854656-4.370432 1.898496-0.781312 5.141504-1.947648 9.710592-3.495936 21.707776-6.995968 41.316352-16.132096 58.83904-27.404288 17.509376-11.280384 32.746496-27.114496 45.696-47.527936C886.373376 303.896576 892.852224 281.242624 892.852224 256.371712L892.852224 256.371712zM716.910592 258.705408c-3.427328 37.316608-20.378624 70.351872-50.840576 99.124224-30.472192 28.768256-70.175744 49.948672-119.104512 63.560704-48.94208 13.607936-101.209088 17.68448-156.807168 12.244992-84.929536-8.94976-155.291648-36.442112-211.075072-82.514944-55.795712-46.055424-81.02912-97.46944-75.687936-154.221568 3.427328-37.322752 20.365312-70.362112 50.840576-99.131392 30.462976-28.772352 70.162432-49.952768 119.104512-63.55456 48.92672-13.618176 101.192704-17.698816 156.806144-12.246016 84.916224 8.93952 155.278336 36.438016 211.075072 82.509824C697.005056 150.539264 722.238464 201.942016 716.910592 258.705408L716.910592 258.705408zM538.681344 165.409792c-17.137664-39.651328-47.224832-68.808704-90.253312-87.463936-43.044864-18.6624-85.68832-20.994048-127.960064-6.998016-40.754176 13.207552-68.834304 37.80096-84.258816 73.756672-15.422464 35.95776-14.19264 72.40192 3.712 109.336576 17.89952 36.150272 46.7456 63.16544 86.546432 81.0496 39.78752 17.87392 79.873024 21.574656 120.247296 11.077632 42.271744-11.278336 72.445952-34.504704 90.540032-69.6832C555.334656 241.303552 555.817984 204.274688 538.681344 165.409792L538.681344 165.409792zM385.590272 157.247488c7.998464 13.206528 10.083328 26.61888 6.284288 40.230912-3.813376 13.607936-12.383232 23.324672-25.706496 29.160448-12.952576 5.438464-26.848256 5.624832-41.701376 0.579584-14.852096-5.054464-26.278912-13.993984-34.275328-26.819584-8.383488-13.216768-10.8544-26.535936-7.425024-39.939072 3.427328-13.421568 11.610112-23.23968 24.563712-29.45024 12.93824-6.2208 27.131904-6.705152 42.555392-1.460224C365.308928 134.797312 377.206784 144.03072 385.590272 157.247488L385.590272 157.247488zM439.287808 227.79904c3.042304 5.04832 3.710976 10.19904 1.9968 15.458304-1.713152 5.238784-5.05344 8.832-9.99424 10.779648-5.342208 1.947648-10.76736 1.846272-16.283648-0.287744-5.522432-2.143232-9.618432-5.741568-12.278784-10.789888-6.483968-12.050432-3.99872-20.795392 7.427072-26.238976 5.325824-1.952768 10.853376-1.850368 16.565248 0.287744C432.432128 219.147264 436.616192 222.744576 439.287808 227.79904L439.287808 227.79904zM953.975808 715.272192c33.132544-37.321728 54.556672-80.571392 64.264192-129.742848 9.710592-49.175552 7.143424-96.115712-7.709696-140.816384-3.427328-10.496-9.906176-18.275328-19.422208-23.323648-9.526272-5.05344-19.423232-5.829632-29.70624-2.333696-10.281984 3.501056-17.903616 10.10688-22.849536 19.827712-4.955136 9.711616-5.90848 19.827712-2.855936 30.32064 10.657792 31.867904 12.567552 65.308672 5.712896 100.29056-6.854656 34.988032-22.093824 65.6896-45.70112 92.132352-23.616512 26.819584-51.792896 45.37856-84.544512 55.68-32.756736 10.302464-65.688576 11.957248-98.822144 4.96128-10.668032-2.332672-20.564992-0.489472-29.705216 5.532672-9.140224 6.029312-14.852096 14.485504-17.13664 25.367552-2.284544 10.88-0.484352 20.892672 5.429248 30.032896 5.89824 9.129984 14.179328 14.866432 24.84736 17.200128 46.84288 10.10688 93.299712 7.865344 139.384832-6.703104C881.231872 779.11552 920.844288 752.969728 953.975808 715.272192L953.975808 715.272192zM792.8832 658.420736c22.468608-7.196672 41.701376-19.926016 57.696256-38.196224 15.99488-18.275328 26.365952-39.361536 31.135744-63.261696 4.75648-23.91552 3.515392-46.749696-3.715072-68.516864-3.05152-8.94976-8.667136-15.550464-16.84992-19.827712-8.198144-4.282368-16.663552-5.05344-25.422848-2.327552-8.764416 3.109888-15.233024 8.836096-19.423232 17.201152-4.194304 8.352768-4.95104 16.995328-2.280448 25.945088 7.612416 24.491008 3.042304 46.066688-13.710336 64.722944-16.765952 18.660352-37.131264 25.45664-61.123584 20.409344-9.140224-1.948672-17.709056-0.386048-25.706496 4.667392-7.998464 5.0432-12.763136 12.244992-14.281728 21.57568-1.908736 9.325568-0.385024 17.972224 4.570112 25.950208 4.94592 7.963648 11.997184 12.914688 21.137408 14.862336C747.758592 666.672128 770.408448 665.608192 792.8832 658.420736L792.8832 658.420736zM792.8832 658.420736"  horiz-adv-x="1025" />

    
    <glyph glyph-name="mima" unicode="&#59023;" d="M638.898155 560.711677l0 89.056292c0 43.924395-34.707476 79.43312-77.695546 79.43312l-86.520539 0c-42.857087 0-77.703733-35.508725-77.703733-79.43312l0-89.056292-102.137215 0 0 89.056292c0.125867 101.464903 80.642668 183.842075 179.840948 183.842075l86.520539 0c99.330286 0 179.840948-82.377172 179.840948-183.842075l0-89.056292L638.898155 560.711677 638.898155 560.711677zM553.98523-65.610044l-83.97967 0c-150.606113 0-272.76636 124.839263-272.76636 278.784424l0 291.857161 629.5216 0 0-291.857161C826.7608 59.229219 704.588273-65.610044 553.98523-65.610044L553.98523-65.610044zM524.876262 384.871857c-39.250956 0-71.022567-32.4429-71.022567-72.493058 0-30.179346 18.023492-56.08025 43.661406-66.897619l0-127.775128c0-15.350616 12.279674-27.767414 27.235294-27.767414 14.94948 0 27.232225 12.416797 27.232225 27.767414L551.98262 245.349173c25.637913 10.948353 43.800575 36.85028 43.800575 67.029626C595.783195 352.427934 563.996235 384.871857 524.876262 384.871857L524.876262 384.871857z"  horiz-adv-x="1024" />

    
    <glyph glyph-name="tupian" unicode="&#59004;" d="M32.532439062499975 794.9911078125l0-821.982215625 958.935121875 0L991.4675609374999 794.9911078125 32.532439062499975 794.9911078125zM922.9824734375 144.23647968750004l-68.4975590625 102.7674440625L717.5070659375 452.49564000000004 507.9716909375 138.19449656250003c-15.51460125 20.686455-31.9204378125 42.551949375-47.873461875000004 63.8149734375-44.842876875 59.8221609375-85.107736875 113.4862565625-85.107736875 113.4862565625L169.51028843749998 41.49781687500001 100.99642062499998 41.49781687500001 100.99642062499998 726.4810781250001l821.98605375 0L922.9824734375 144.23647968750004zM340.7503475 383.99808093750005c56.7579984375 0 102.7588096875 45.9969740625 102.7588096875 102.74154093749999 0 56.7493640625-46.00081125 102.746338125-102.7588096875 102.746338125-56.736892499999996 0-102.74154093749999-45.9969740625-102.74154093749999-102.746338125C238.00784656250005 429.995055 284.01249593750003 383.99808093750005 340.7503475 383.99808093750005z"  horiz-adv-x="1024" />

    
    <glyph glyph-name="comment" unicode="&#58887;" d="M772.893 714.619h-521.392c-71.988 0-130.35-58.362-130.35-130.35v-391.050c0-71.988 58.362-130.35 130.35-130.35h130.35l128.405-130.35 132.295 130.35h130.341c71.996 0 130.35 58.362 130.35 130.35v391.050c0 71.988-58.353 130.35-130.35 130.35v0zM512.192 453.919c35.994 0 65.176-29.181 65.176-65.175 0-35.994-29.181-65.176-65.176-65.176-35.995 0-65.175 29.181-65.175 65.176 0 35.993 29.181 65.175 65.175 65.175v0zM316.677 323.569c-35.994 0-65.175 29.181-65.175 65.176 0 35.994 29.181 65.175 65.175 65.175 35.994 0 65.175-29.181 65.175-65.175 0-35.995-29.181-65.176-65.175-65.176v0zM707.727 323.569c-35.994 0-65.175 29.181-65.175 65.176 0 35.994 29.181 65.175 65.175 65.175 35.994 0 65.175-29.181 65.175-65.175 0-35.995-29.181-65.176-65.175-65.176v0z"  horiz-adv-x="1024" />

    
    <glyph glyph-name="qiandao" unicode="&#58918;" d="M814.4971851851851 741.4139259259259l-74.3348148148148 0 0-59.16444444444445c0-22.755555555555553-21.238518518518518-40.96-47.02814814814815-40.96-25.78962962962963 0-47.02814814814815 18.204444444444444-47.02814814814815 40.96l0 59.16444444444445L354.834962962963 741.4139259259259l0-59.16444444444445c0-22.755555555555553-21.238518518518518-40.96-47.02814814814815-40.96-25.78962962962963 0-47.02814814814815 18.204444444444444-47.02814814814815 40.96l0 59.16444444444445-74.3348148148148 0c-50.06222222222222 0-91.02222222222221-36.40888888888889-91.02222222222221-80.40296296296296l0-646.2577777777777c0-43.99407407407407 40.96-80.40296296296296 91.02222222222221-80.40296296296296l628.0533333333333 0c50.06222222222222 0 91.02222222222221 36.40888888888889 91.02222222222221 80.40296296296296L905.5194074074075 662.528C905.5194074074075 706.522074074074 864.5594074074074 741.4139259259259 814.4971851851851 741.4139259259259L814.4971851851851 741.4139259259259 814.4971851851851 741.4139259259259zM846.354962962963 28.406518518518396c0-13.653333333333334-13.653333333333334-25.78962962962963-31.857777777777777-25.78962962962963l-628.0533333333333 0c-18.204444444444444 0-31.857777777777777 12.136296296296294-31.857777777777777 25.78962962962963L154.58607407407413 515.3754074074075 846.354962962963 515.3754074074075 846.354962962963 28.406518518518396 846.354962962963 28.406518518518396 846.354962962963 28.406518518518396zM307.8068148148148 656.4598518518519c12.136296296296294 0 22.755555555555553 7.5851851851851855 22.755555555555553 16.687407407407406l0 68.26666666666667 0 39.44296296296296c0 9.102222222222222-10.619259259259259 16.687407407407406-22.755555555555553 16.687407407407406-12.136296296296294 0-22.755555555555553-7.5851851851851855-22.755555555555553-16.687407407407406l0-39.44296296296296 0-68.26666666666667C286.56829629629635 664.045037037037 295.6705185185185 656.4598518518519 307.8068148148148 656.4598518518519L307.8068148148148 656.4598518518519 307.8068148148148 656.4598518518519zM691.6171851851851 656.4598518518519c12.136296296296294 0 22.755555555555553 7.5851851851851855 22.755555555555553 16.687407407407406l0 107.70962962962965c0 9.102222222222222-10.619259259259259 16.687407407407406-22.755555555555553 16.687407407407406-12.136296296296294 0-22.755555555555553-7.5851851851851855-22.755555555555553-16.687407407407406l0-107.70962962962965C668.8616296296296 664.045037037037 679.4808888888889 656.4598518518519 691.6171851851851 656.4598518518519L691.6171851851851 656.4598518518519zM706.7875555555556 369.7398518518519L486.81718518518517 114.87762962962961c-12.136296296296294-13.653333333333334-30.340740740740742-13.653333333333334-42.477037037037036 0l-124.39703703703704 142.60148148148147c-12.136296296296294 13.653333333333334-12.136296296296294 34.89185185185185 0 48.545185185185176 12.136296296296294 13.653333333333334 30.340740740740742 13.653333333333334 42.477037037037036 0l103.15851851851852-118.3288888888889L664.3105185185186 418.28503703703706c12.136296296296294 13.653333333333334 30.340740740740742 13.653333333333334 42.477037037037036 0C718.9238518518519 404.6317037037037 718.9238518518519 383.3931851851852 706.7875555555556 369.7398518518519L706.7875555555556 369.7398518518519z"  horiz-adv-x="1024" />

    
    <glyph glyph-name="chuchuang" unicode="&#58917;" d="M75.98372750222228 820.8889116444444l330.66095957333334 0 0-330.66095957333334-330.66095957333334 0 0 330.66095957333334ZM617.3529838933334 820.8889116444444l330.66212352 0 0-330.66095957333334-330.66212352 0 0 330.66095957333334ZM75.98372750222228 277.7732118755556l330.66095957333334 0 0-330.66095957333334-330.66095957333334 0 0 330.66095957333334ZM617.3529838933334 277.7732118755556l330.66212352 0 0-330.66095957333334-330.66212352 0 0 330.66095957333334Z"  horiz-adv-x="1024" />

    
    <glyph glyph-name="shangcheng1" unicode="&#58894;" d="M848.41664 813.12L174.632 813.12C124.1072 813.12 82.88 772.08 82.88 721.37376L82.88 47.58720000000005C82.88-2.937599999999975 124.1072-44.15999999999997 174.632-44.15999999999997L848.41664-44.15999999999997C899.12-44.15999999999997 940.16-2.937599999999975 940.16 47.58720000000005L940.16 721.37376C940.16 772.08 899.12 813.12 848.41664 813.12ZM689.912 354.38496C639.3872 304.7712 572.26112 277.4112 500.94848 277.4112 429.44 277.4112 362.32256 304.7712 311.79776 354.38496 260.9072 404.3616 233.00384 470.93856 233.00384 541.52736 233.00384 561.408 235.18592 581.10816 239.56736 600.2592 242.8448 614.8512000000001 257.25536 623.78976 271.85312 620.5056 286.26272 617.04 295.19648 602.81376 291.90944 588.22176 288.4448 573.0816 286.62848 557.39616 286.62848 541.52736 286.62848 485.34816 308.87648 432.4512 349.37312 392.688 389.86112 352.9248 443.672 331.03679999999997 500.94848 331.03679999999997 558.03776 331.03679999999997 611.84 352.9248 652.33664 392.688 692.83328 432.4512 715.08128 485.34816 715.08128 541.52736 715.08128 555.5712 713.80736 569.4336000000001 711.07328 582.9312 708.152 597.5241599999999 717.45056 611.568 732.04832 614.4873600000001 746.45792 617.4048 760.68128 608.1024 763.60256 593.5104 767.0672 576.54816 768.70592 559.0368000000001 768.70592 541.52736 768.70592 470.93856 740.80256 404.3616 689.912 354.38496Z"  horiz-adv-x="1024" />

    
    <glyph glyph-name="fenlei" unicode="&#58888;" d="M981.184 413.536c21.76 0 39.392 17.632 39.392 39.392l0 393.856c0 21.76-17.632 39.392-39.392 39.392l-396.928 0c-21.728 0-39.392-17.632-39.392-39.392l0-393.856c0-21.76 17.632-39.392 39.392-39.392l396.928 0zM738.112 354.464c106.72 0 193.248-85.952 193.248-192 0-45.504-16-87.232-42.624-120.128l102.08-101.408-29.728-29.536-102.08 101.408c-33.088-26.432-75.104-42.336-120.896-42.336-106.72 0-193.248 85.952-193.248 192s86.528 192 193.248 192zM738.112 0c90.304 0 163.52 72.736 163.52 162.464s-73.216 162.464-163.52 162.464c-90.304 0-163.52-72.736-163.52-162.464s73.216-162.464 163.52-162.464zM446.016-118.144c21.728 0 39.392 17.632 39.392 39.392l0 393.856c0 21.76-17.632 39.392-39.392 39.392l-396.928 0c-21.76 0-39.392-17.632-39.392-39.392l0-393.856c0-21.76 17.632-39.392 39.392-39.392l396.928 0zM446.016 413.536c21.728 0 39.392 17.632 39.392 39.392l0 393.856c0 21.76-17.632 39.392-39.392 39.392l-396.928 0c-21.76 0-39.392-17.632-39.392-39.392l0-393.856c0-21.76 17.632-39.392 39.392-39.392l396.928 0z"  horiz-adv-x="1024" />

    
    <glyph glyph-name="jiantou21" unicode="&#58968;" d="M106.951359 419.999912c23.394826 0 42.358737-18.96391 42.358737-42.35976 0-23.390733-18.96391-42.357713-42.358737-42.357713s-42.358737 18.96698-42.358737 42.357713C64.592622 401.036002 83.556533 419.999912 106.951359 419.999912zM274.258852 419.999912c23.394826 0 42.35976-18.96391 42.35976-42.35976 0-23.390733-18.964934-42.357713-42.35976-42.357713s-42.358737 18.96698-42.358737 42.357713C231.900116 401.036002 250.864026 419.999912 274.258852 419.999912zM441.566346 419.999912c23.394826 0 42.358737-18.96391 42.358737-42.35976 0-23.390733-18.96391-42.357713-42.358737-42.357713s-42.35976 18.96698-42.35976 42.357713C399.207609 401.036002 418.17152 419.999912 441.566346 419.999912zM608.874863 419.999912c23.393803 0 42.35976-18.96391 42.35976-42.35976 0-23.390733-18.964934-42.357713-42.35976-42.357713s-42.35976 18.96698-42.35976 42.357713C566.515103 401.036002 585.480037 419.999912 608.874863 419.999912zM952.288237 406.721491 688.470689 670.540062c-12.095479 12.089339-35.304064 8.487302-51.842739-8.057513-16.537651-16.538675-20.148899-39.753399-8.05649-51.845809l226.63981-226.641857L628.5776 157.358143c-12.092409-12.087293-8.481162-35.310204 8.05649-51.839669 16.538675-16.540721 39.747259-20.146852 51.842739-8.065699l263.817548 263.820618c5.715165 5.708002 7.880481 13.919011 6.875594 22.721491C960.168718 392.798387 958.003402 401.001209 952.288237 406.721491z"  horiz-adv-x="1024" />

    
    <glyph glyph-name="zan1" unicode="&#59151;" d="M512.001535 830.257693c-246.464321 0-446.25974-199.799512-446.25974-446.257693 0-246.463298 199.797465-446.257693 446.25974-446.257693 246.461251 0 446.255647 199.794395 446.255647 446.257693C958.257182 630.458181 758.461763 830.257693 512.001535 830.257693zM354.832959 205.62545c0-18.261922-14.805194-33.067116-33.067116-33.067116-18.261922 0-33.066093 14.806217-33.066093 33.067116L288.69975 405.717627c0 18.264992 14.805194 33.062 33.066093 33.062 18.262946 0 33.067116-14.797008 33.067116-33.062L354.832959 205.62545zM729.842958 369.302253c-5.244444-19.119453-0.814552-18.318204-12.517081-46.0058-4.091178-9.677407 1.955538-45.61899-27.400047-75.352175-6.311753-6.390547 1.209548-38.83447-24.686239-62.942541-5.51869-5.13802-6.954389-14.820544-18.267039-21.122063-21.164019-11.785417-36.284391-11.062963-63.132876-11.062963-51.625798 0-154.37495 17.027815-183.505407 38.013779-5.308913 3.827165-8.455579 9.967002-8.455579 16.513092L391.87869 403.37528c0 6.1777 5.131881 13.829983 9.895371 17.783015 6.952342 5.76633 14.963807 13.132088 52.997028 40.342824 44.149523 31.591509 44.598754 37.539988 62.797231 67.175959 0 0 22.403243 53.94461 23.599488 57.278541 16.650215 46.527686 72.073502 34.30941 78.210269-13.984503 3.617387-28.449959-7.169283-52.495608-13.889335-76.976162-6.216585-22.63758-10.659781-35.015491-12.465916-48.224328 23.539112 2.091638 68.25043 9.899464 81.732489 9.022491C720.365096 452.827575 747.541039 433.813522 729.842958 369.302253z"  horiz-adv-x="1024" />

    
    <glyph glyph-name="taobao" unicode="&#58974;" d="M369.752747 719.209813c-19.84512-55.37792-48.45568-112.254293-75.567787-150.326613-11.65312-16.267947-20.189867-26.4192-34.495147-41.07264l-13.73184-13.960533 40.034987-22.842027 39.918933-22.729387 8.6528 8.420693c10.499413 10.38336 34.495147 37.034667 46.26432 51.456l8.6528 10.615467 23.302827 9.806507c12.806827 5.423787 24.692053 10.38336 26.422613 11.076267l3.11296 1.153707-4.266667-7.847253c-23.074133-41.53344-53.99552-87.565653-76.721493-113.984853-5.07904-5.884587-9.117013-11.076267-9.00096-11.537067 0-0.576853 10.84416-10.38336 24.111787-21.804373l23.999147-20.770133-25.265493-0.344747-25.268907-0.228693 0-57.688747 162.676053 0 0-137.632427-10.615467 0.805547c-23.074133 1.727147-40.379733 7.727787-48.45568 16.612693-9.46176 10.496-11.997867 29.187413-8.536747 61.83936 1.037653 9.458347 1.8432 19.145387 1.8432 21.572267l0 4.49536L390.519467 294.294187c-45.45536 0-56.763733-0.344747-58.494293-1.49504-3.11296-2.307413-5.075627-16.151893-5.884587-41.188693-0.9216-24.22784 0.464213-38.99392 4.962987-56.989013 11.188907-44.42112 37.956267-71.072427 81.104213-80.759467 10.154667-2.194773 14.19264-2.42688 54.801067-2.307413 33.460907 0 47.99488 0.4608 61.494613 1.95584 75.44832 8.54016 136.482133 28.84608 184.70912 61.610667 6.690133 4.498773 12.57472 7.959893 12.919467 7.499093 0.464213-0.4608 4.154027-13.725013 8.424107-29.65504 4.27008-15.80032 7.847253-28.955307 8.075947-29.187413 0.228693-0.232107 21.11488 8.192 46.380373 18.691413 29.764267 12.342613 45.912747 19.6096 45.687467 20.538027-0.34816 1.846613-61.146453 151.135573-61.83936 151.712427-0.4608 0.4608-74.30144-22.03648-75.106987-22.961493-0.232107-0.228693 2.65216-11.76576 6.46144-25.726293 3.693227-13.960533 6.806187-25.726293 6.806187-26.30656 0-1.3824-18.230613-12.806827-29.88032-18.691413-8.6528-4.266667-32.768-14.421333-34.379093-14.421333-0.228693 0-0.34816 26.996053-0.34816 59.989333l0 59.992747 159.214933 0 0 57.688747-159.214933 0 0 71.529813 160.365227 0 0 57.685333L522.8544 513.498453l6.341973 7.84384c16.728747 20.76672 36.109653 51.688107 33.918293 53.99552-0.344747 0.344747-10.151253 3.11296-21.804373 6.229333-11.65312 3.229013-22.268587 6.229333-23.538347 6.690133-3.693227 1.614507 58.262187 21.57568 96.914773 31.266133 70.95296 17.650347 126.214827 20.421973 164.4032 8.075947 14.998187-4.959573 25.14944-11.19232 36.34176-22.381227 8.533333-8.424107 11.421013-12.229973 15.22688-20.189867 5.884587-11.997867 9.00096-23.074133 10.73152-37.843627 0.925013-7.84384 1.153707-66.454187 0.925013-194.054827l-0.34816-182.862507-3.2256-10.267307c-5.888-18.694827-12.346027-29.53216-24.347307-40.727893-17.65376-16.612693-41.765547-24.572587-74.06592-24.572587-12.806827 0-16.728747 0.576853-48.459093 7.499093-18.920107 4.037973-34.839893 7.038293-35.188053 6.577493-0.9216-0.925013-16.032427-61.83936-16.032427-64.262827 0-1.962667 3.805867-3.116373 25.381547-7.499093 34.614613-7.038293 50.991787-8.533333 92.296533-8.6528 41.188693 0 50.9952 0.925013 77.755733 7.734613 75.5712 19.032747 119.985493 69.451093 129.792 147.438933 4.041387 31.8464 7.734613 83.991893 9.46176 133.833387 2.884267 81.79712-2.19136 175.363413-12.92288 239.9744-3.918507 23.302827-9.690453 38.07232-21.68832 55.02976-45.919573 65.071787-147.677867 92.183893-286.81216 76.4928-51.920213-5.884587-120.91392-19.729067-176.288427-35.304107-5.65248-1.614507-10.499413-2.65216-10.84416-2.307413-0.232107 0.232107 2.884267 6.693547 6.92224 14.19264 11.881813 21.456213 20.882773 40.72448 19.729067 41.762133-1.037653 0.925013-113.179307 32.41984-115.258027 32.41984C377.596587 739.631787 373.674667 730.402133 369.752747 719.209813L369.752747 719.209813zM512.58368 420.05504l0-35.764907-110.987947 0 34.955947 35.648853 35.072 35.764907 20.538027 0 20.421973 0.116053L512.58368 420.05504zM190.81216 725.671253c-31.266133-6.11328-56.992427-28.726613-64.146773-56.415573-3.00032-11.421013-2.53952-26.190507 1.037653-37.61152 16.500053-51.572053 85.835093-71.529813 132.79232-37.956267 19.84512 14.073173 31.034027 35.072 31.034027 58.262187 0 19.380907-6.690133 35.188053-21.22752 49.72544-12.342613 12.458667-26.074453 19.841707-43.264 23.534933C218.269013 727.057067 199.00416 727.28576 190.81216 725.671253zM112.820907 507.620693c-13.960533-21.57568-25.4976-39.80288-25.729707-40.61184-0.11264-0.805547 21.346987-14.882133 47.88224-31.266133 63.68256-39.570773 59.76064-36.80256 69.567147-46.72512 27.22816-27.3408 27.460267-58.37824 1.037653-97.027413-21.804373-31.842987-77.06624-91.603627-134.98368-146.059947-12.690773-11.881813-22.842027-22.03648-22.729387-22.613333 0.464213-1.153707 124.13952-78.219947 125.641387-78.219947 0.576853 0 2.075307 2.19136 3.229013 4.959573 4.614827 10.499413 35.536213 76.4928 58.149547 123.798187 13.03552 27.22816 25.842347 55.033173 28.494507 61.719893 11.997867 29.999787 26.30656 78.800213 30.22848 103.140693 0.805547 5.07904 1.3824 17.54112 1.26976 27.692373 0 14.998187-0.464213 20.186453-2.53952 27.685547-3.00032 11.424427-8.997547 24.1152-15.57504 33.344853-6.577493 9.229653-47.99488 49.72544-66.914987 65.529173-14.769493 12.346027-67.375787 52.381013-70.147413 53.418667C138.779307 546.730667 128.512 531.848533 112.820907 507.620693L112.820907 507.620693z"  horiz-adv-x="1024" />

    
    <glyph glyph-name="meiyuan8" unicode="&#59194;" d="M508.258 833.838c-251.137 0-454.765-203.622-454.765-454.765s203.622-454.765 454.765-454.765 454.765 203.622 454.765 454.765c0 251.137-203.622 454.765-454.765 454.765zM546.37 126.891l0-85.107-81.972 0 0 78.317c-55.344 2.61-109.121 18.274-140.449 35.503l24.54 96.59c34.462-18.8 83.538-36.549 137.317-36.549 48.031 0 79.886 18.8 79.886 51.166 0 31.327-26.627 51.166-88.237 72.052-88.237 29.763-148.804 71.01-148.804 151.413 0 73.618 51.166 130.529 139.405 147.236l0 78.317 80.931 0 0-72.574c54.302-1.566 91.892-14.097 120.609-27.148l-24.54-93.457c-20.885 9.921-59.523 29.235-119.041 29.235-53.776 0-71.01-24.017-71.01-46.989 0-26.627 28.714-44.902 100.249-69.964 98.157-34.983 137.317-80.406 137.317-155.59 0-73.618-51.166-136.799-146.19-152.459z"  horiz-adv-x="1024" />

    
    <glyph glyph-name="yanzhengma1" unicode="&#59075;" d="M768 896 256 896C220.8 896 192 867.2 192 832l0-896c0-35.2 28.8-64 64-64l512 0c35.2 0 64 28.8 64 64L832 832C832 867.2 803.2 896 768 896zM656 864C665.6 864 672 857.6 672 848S665.6 832 656 832 640 838.4 640 848 646.4 864 656 864zM464 864l96 0C569.6 864 576 857.6 576 848 576 838.4 569.6 832 560 832l-96 0C454.4 832 448 838.4 448 848 448 857.6 454.4 864 464 864zM512-96c-25.6 0-48 22.4-48 48S486.4 0 512 0s48-22.4 48-48S537.6-96 512-96zM768 64c0-19.2-12.8-32-32-32L288 32c-19.2 0-32 12.8-32 32L256 768c0 19.2 12.8 32 32 32l448 0c19.2 0 32-12.8 32-32L768 64zM480 256 352 256c-16 0-32-12.8-32-32 0-19.2 12.8-32 32-32l128 0c16 0 32 12.8 32 32C512 243.2 499.2 256 480 256zM672 448 352 448c-16 0-32-12.8-32-32 0-19.2 12.8-32 32-32l320 0c16 0 32 12.8 32 32C704 435.2 691.2 448 672 448zM352 576l192 0c16 0 32 12.8 32 32 0 19.2-12.8 32-32 32L352 640C336 640 320 627.2 320 608 320 588.8 332.8 576 352 576z"  horiz-adv-x="1024" />

    
    <glyph glyph-name="biaoqian2" unicode="&#58979;" d="M897.71428584 834l0-900-385.71428584 225L126.28571416-66 126.28571416 834 897.71428584 834z"  horiz-adv-x="1024" />

    
    <glyph glyph-name="youhuiquan" unicode="&#58937;" d="M4.992 538.944c0 20.288 3.456 34.752 9.984 43.52 6.656 8.64 21.312 12.864 44.288 12.864l141.312 0 0-563.584L139.904 31.744c-16.256 0-32.192 0.128-48 0.512-15.936 0.256-26.688 0.512-32.576 0.512-19.904-0.768-33.92 2.624-42.048 10.24-8.064 7.488-12.224 21.888-12.224 42.88l0 162.24c0 8.256 1.408 14.528 3.904 18.496C11.456 270.72 16.832 273.6 24.96 275.136c3.008 0 6.912 1.152 12.224 3.392 5.056 2.368 10.24 6.016 15.36 10.88s9.6 11.136 13.248 19.136C69.44 316.352 71.36 325.888 71.36 337.28c0 17.28-4.544 30.72-13.76 40.512C48.384 387.52 38.528 393.28 28.16 394.624 20.16 396.096 14.208 398.656 10.56 401.984 6.848 405.504 4.992 411.264 4.992 419.52L4.992 538.944 4.992 538.944zM96.704 646.016 96.704 659.584 96.704 660.736 96.704 661.888 96.704 675.392c0 14.912 5.824 28.928 17.152 41.664 11.328 12.736 23.744 19.2 36.992 19.2l152.576 0 0-90.24L96.704 646.016 96.704 646.016zM997.376 401.472c-5.76-1.6-10.112-4.736-12.736-9.728-2.368-4.736-3.904-10.24-3.904-16.128 0-6.144 1.472-11.904 3.904-17.472 2.624-5.76 6.976-9.728 12.736-11.904 5.888-2.368 10.624-6.848 13.888-13.504 3.392-6.848 5.248-13.888 5.504-21.504 0.384-7.488-0.64-14.72-2.752-21.376-2.24-6.72-5.504-11.648-9.856-14.72-14.72-9.024-22.016-19.136-22.016-30.4s7.232-22.656 22.016-33.728c3.008-2.368 5.632-6.528 8.256-12.352 2.496-6.144 3.776-12.096 3.776-18.24 0-6.016-1.344-11.136-4.352-15.616-3.008-4.608-8.128-6.848-15.488-6.848l-59.648 0c-4.224 0-6.72 0.384-6.976 1.28-0.384 0.768 0.128 1.984 1.472 3.776 1.472 1.984 3.264 4.032 5.504 6.4 2.24 2.24 4.032 4.864 5.632 7.872 3.648 10.496 3.648 19.52 0 27.008-3.776 7.616-9.856 13.888-18.88 19.136-5.888 3.008-10.24 7.744-12.608 14.272-2.624 6.272-3.648 12.864-3.264 19.648 0.256 6.848 1.472 12.736 3.776 17.984 2.24 5.376 5.632 9.152 9.856 11.392 6.016 2.24 10.368 6.4 13.248 12.352 3.008 5.888 4.48 12.352 4.48 19.136s-1.28 12.992-3.264 18.624c-2.24 5.632-5.504 9.6-10.112 11.776-5.76 3.136-10.368 7.488-13.76 13.632C908.48 368 906.88 374.72 906.88 382.272c0 7.616 1.344 14.848 4.352 22.016s7.616 12.992 14.272 17.472c4.608 3.008 8.256 7.104 11.136 12.352 3.136 5.376 4.48 10.88 5.12 16.896 0.384 6.08-1.024 11.84-3.392 17.472-2.624 5.696-7.232 10.304-13.888 14.08-7.232 3.712-12.736 9.28-16 16.32-3.264 7.168-4.992 14.592-4.992 22.016 0 7.616 1.728 14.656 4.992 21.504 3.264 6.656 7.872 12.032 13.76 15.872 12.48 6.656 19.52 15.936 20.48 27.52 1.152 11.648 0.256 22.464-2.752 32.064-2.368 7.616-6.656 14.336-13.12 20.352-6.72 6.08-15.232 9.024-25.472 9.024L370.944 647.232 370.944 736.256l622.208 0c5.12 0 9.344-1.92 12.992-5.632 3.776-3.776 6.272-8.256 7.36-13.568 1.152-5.248 0.768-10.688-1.152-16.32-1.728-5.568-5.248-10.432-10.496-14.208-4.48-3.776-8.384-8.512-11.648-14.592-3.392-6.016-4.992-12.16-5.632-18.624-0.256-6.464 0.768-12.736 2.88-19.2 2.112-6.336 6.144-11.072 12.096-14.08 8.256-4.48 14.272-10.688 18.24-18.496C1021.888 593.664 1024 585.792 1024 577.984c0-8-2.112-15.296-6.144-22.016-4.032-6.848-9.6-11.776-17.024-14.656-8.128-3.136-14.144-7.36-17.728-12.992-3.776-5.696-5.632-11.904-6.144-18.56-0.384-6.784 1.024-13.376 4.224-19.712 3.392-6.464 8.768-12.032 16.128-16.512 7.36-4.352 12.864-10.368 16.128-17.984 3.264-7.424 4.608-14.912 4.352-22.528-0.384-7.488-2.24-14.4-5.504-20.864C1008.896 405.888 1004.096 402.24 997.376 401.472L997.376 401.472zM853.76 418.368c-8.768-2.24-15.616-6.656-20.48-12.864-4.736-6.528-7.232-12.992-7.744-19.904-0.256-6.72 1.6-13.504 5.504-20.352 4.224-6.656 10.112-11.52 18.368-14.528 7.232-3.136 12.864-7.616 16.512-13.504 3.776-6.144 5.76-12.48 6.144-19.264s-1.024-13.248-3.904-19.136c-2.88-6.016-7.36-10.624-13.248-13.504-18.368-9.152-28.032-20.032-28.608-32.768-0.896-12.736 6.144-22.848 20.864-30.528 6.656-3.008 12.032-7.616 16-14.016 4.096-6.4 6.272-13.12 6.72-20.352 0.384-6.976-1.024-13.504-4.032-19.008-2.88-5.888-7.744-9.6-14.272-12.032-8.896-2.24-15.616-6.272-20.608-12.352-4.608-5.888-7.104-12.352-7.488-19.008-0.512-6.976 1.344-13.632 5.504-20.352 4.032-6.848 10.496-12.48 19.264-17.024 6.016-3.008 10.112-7.744 12.736-14.016 2.624-6.528 3.52-12.608 2.88-18.624-0.896-6.016-2.88-11.52-6.272-16.256-3.264-4.992-7.872-7.36-13.888-7.36l-577.92 0L265.792 595.328l584.576 0c5.888 0 10.624-2.304 14.016-7.36 3.264-4.864 4.992-10.24 5.504-16.32 0.384-6.08-1.024-12.032-4.032-17.984-2.88-5.952-7.744-10.176-14.272-12.352-6.656-2.304-12.032-6.08-16.128-11.328-4.096-5.184-6.4-11.136-7.232-17.408-0.64-6.464 0.896-12.544 4.48-18.624 3.776-6.08 9.984-10.56 18.88-13.504 6.528-3.008 12.032-7.488 16-13.568s6.4-12.16 6.656-18.496c0.384-6.592-1.152-12.48-4.352-18.24C866.624 424.64 861.248 420.608 853.76 418.368L853.76 418.368zM587.392 342.72c-3.52 0-7.488 0.384-11.648 1.152C571.776 344.768 571.008 347.008 572.992 350.72c0.896 1.344 4.352 6.72 10.624 15.744 6.272 9.152 13.12 18.624 20.992 28.736 7.744 10.24 14.72 19.776 21.632 28.736 6.528 9.024 10.624 14.656 12.032 17.024 3.776 5.888 1.472 12.992-6.656 21.312C630.272 463.808 627.264 466.112 622.72 469.184 618.496 472.128 614.4 474.368 610.752 475.84c-6.016 2.176-10.24 2.624-12.864 1.088C595.52 475.456 592.256 472.128 588.608 466.816 587.136 464.64 583.488 459.136 577.472 450.56 571.648 441.728 565.376 432.64 558.72 422.848 552.128 412.992 545.984 404.224 540.48 396.48 534.848 388.48 531.776 383.872 531.136 382.272 529.728 379.392 526.848 378.112 522.752 378.88 518.72 379.648 516.032 381.504 514.624 384.512 513.728 385.984 510.528 390.4 504.576 397.632 498.624 404.608 492.288 412.608 485.76 421.76S472.768 439.104 466.496 447.104C460.16 455.04 456 460.416 453.696 463.552 447.04 476.288 440.064 480.384 432.768 475.84 427.584 472.896 422.912 469.696 418.816 466.368 414.784 462.848 410.944 460.032 407.296 457.728c-7.36-5.12-8.448-11.968-3.328-20.224 12.48-14.976 23.616-28.864 33.216-41.728 8.064-10.496 15.744-20.48 23.232-30.528 7.296-9.6 11.712-15.232 13.12-16.896 1.536-2.88 0-4.48-4.416-4.48L456 343.872c-3.648 0-9.088-0.128-16-0.512C432.896 342.976 426.432 343.104 420.48 343.872c-5.824 0-10.688-1.344-14.4-4.48C402.496 336.512 401.344 332.736 402.88 328.256 403.584 325.12 403.968 320.64 403.968 314.752l0-13.76c0-3.648 1.024-5.76 3.328-6.144C409.536 294.528 412.032 294.4 415.04 294.4l64.128 0c8.704 0 13.12-1.856 13.12-5.632l0-21.376c0-3.904-0.64-5.76-2.176-5.76L484.608 261.632 473.472 261.632 451.456 261.632 429.312 261.632 416.064 261.632C411.712 262.4 408.832 261.248 407.296 258.368c-1.408-3.136-2.496-6.528-3.328-10.24-0.768-3.904-0.768-7.36 0-10.624 0.832-3.52 1.024-6.4 1.024-8.512 0-9.856 4.8-14.72 14.4-14.72L485.76 214.272c3.84 0 5.952-0.512 6.592-1.6 0.704-1.152 1.152-3.648 1.152-7.36 0.768-3.776 1.024-10.496 0.512-20.224C493.696 175.232 493.44 168.896 493.44 165.76c0-8.256 4.8-12.352 14.336-12.352l35.456 0c5.888 0 8.896 1.856 8.896 5.76l0 7.744 0 37.248c0 7.616 3.392 11.392 9.856 11.392l9.984 0c5.12 0 11.008 0.128 17.152 0.64 6.4 0.256 12.352 0.512 18.112 0.512l14.4 0c10.24 0 15.616 3.776 15.616 11.136l0 24.896c0 6.848-3.648 10.24-11.008 10.24L561.984 262.976c-7.232-1.6-11.136 0-11.136 4.48 0 2.112-0.128 4.992-0.512 8.384S549.888 282.24 549.888 285.376c0 2.88 1.152 5.248 3.776 6.656C556.352 293.632 559.104 294.4 561.984 294.4l65.28 0c7.232 0 11.008 2.496 11.008 7.872L638.272 329.344c0 3.008-1.28 5.888-3.904 8.896-2.624 3.136-5.76 4.48-9.344 4.48L587.392 342.72 587.392 342.72zM587.392 342.72"  horiz-adv-x="1024" />

    
    <glyph glyph-name="gantanhao1" unicode="&#58949;" d="M512 891.87328c280.49408 0 507.87328-227.3792 507.87328-507.87328 0-280.49408-227.3792-507.87328-507.87328-507.87328C231.50592-123.87328 4.12672 103.50592 4.12672 384 4.12672 664.49408 231.50592 891.87328 512 891.87328zM512 210.03264c-42.47552 0-76.91264-34.42688-76.91264-76.91264 0-42.47552 34.43712-76.91264 76.91264-76.91264 42.47552 0 76.91264 34.43712 76.91264 76.91264C588.91264 175.60576 554.47552 210.03264 512 210.03264zM509.78816 270.16192c36.58752 0 66.24256 29.66528 66.24256 66.24256l0 309.1456c0 36.58752-29.65504 66.24256-66.24256 66.24256-36.58752 0-66.24256-29.66528-66.24256-66.24256l0-309.1456C443.5456 299.81696 473.20064 270.16192 509.78816 270.16192z"  horiz-adv-x="1024" />

    
    <glyph glyph-name="tianjiatuanduichengyuan" unicode="&#58927;" d="M568.82 383.203c55.648 42.051 92.172 108.582 92.172 184.227 0 127.363-102.102 230.605-228.063 230.605-125.957 0-228.055-103.242-228.055-230.605 0-74.352 35.395-139.766 89.418-181.938-115.941-52.43-197.738-168.023-201.879-303.93 0-20.984 17.008-38 37.996-38 20.984 0 38 17.016 38 38 9.43 135.813 118.422 250.391 253.746 256.359l20.543-0.102c85.426-3.242 160.488-46.523 206.816-112.633L736 225.186C700.609 296.219 640.586 350.578 568.82 383.203zM436.137 415.336l-8.172 0.098c-81.676 2.438-147.41 69.344-147.41 152.512 0 84.723 67.93 153.406 151.719 153.406s151.695-68.684 151.695-153.406C583.969 484.617 518.031 417.539 436.137 415.336zM677.109 714.926c64.891-17.398 133.836-75.891 133.836-146.98 0-53.93-37.148-108.469-79.039-135.098l-0.047-0.043c-19.789-7.629-33.984-26.672-33.984-49.359l-0.078-4.938c0-28.195 22.461-50.719 49.93-52.492 0 0 1.398-0.203 1.539-0.391 44.219-20.922 86.281-56.875 119.094-100.438l94.266 0C928.289 293 871.797 346.516 803.422 379.125l-0.297 3.063c52.531 43.242 84.813 111.18 84.813 185.242 0 121.105-92.688 218.813-210.055 228.258l-2.695-0.094c-21.461-1.16-38.813-18.191-38.813-39.938C636.375 733.164 654.609 714.926 677.109 714.926zM907.852 81.055l-72.867 0 0 72.922c0 20.125-16.313 36.453-36.422 36.453s-36.438-16.328-36.438-36.453l0-72.922-72.852 0c-20.109 0-36.422-16.297-36.422-36.445 0-20.133 16.313-36.461 36.422-36.461l72.852 0 0-72.922c0-20.109 16.328-36.445 36.438-36.445s36.422 16.336 36.422 36.445l0 72.922 72.867 0c20.109 0 36.422 16.328 36.422 36.461C944.273 64.758 927.961 81.055 907.852 81.055z"  horiz-adv-x="1024" />

    
    <glyph glyph-name="zan" unicode="&#58911;" d="M843.8670500183105 525.9202219746908L843.8670500183105 525.9202219746908c40.68622979736328 0 89.99381964111328-40.68120272827149 89.99381964111328-91.20556741333007 0-36.5905280456543-45.90101596069337-366.3365957336426-67.71830877685547-402.5506983947754-21.5863154296875-35.755273223876955-79.24033547973633-48.705554443359375-112.71817419433593-48.705554443359375L550.0280217895508-16.541599100748613c-108.62851876831056 0-202.40961740112306 60.29768984985351-227.6330086669922 60.29768984985351L240.88580093383786 43.7560915730794c-16.66521029663086 0-30.22703723144531 13.410672912597658-30.22703723144531 30.149524291992186l0 421.78702505493163c0 16.59197708129883 13.561827758789063 30.2275810546875 30.22703723144531 30.2275810546875l84.46116796874999 0c12.047364074707032 0 73.63119012451172 26.737922515869144 103.10102929687501 76.66079562377931 9.999003570556642 17.271661376953123 18.332118347167967 50.6757222290039 26.210139587402345 83.02435400390625 12.042337005615234 49.39013067626953 23.483249999999998 96.0533709411621 47.797475097656246 120.8222133178711 20.3012668762207 20.83394174194336 58.25544406127929 26.66468930053711 94.08327154541016 14.471062316894534 48.330216705322265-16.289328735351564 81.20703845214842-59.77058670043946 88.10279544067383-116.20382409667968 8.708384948730469-70.75694998168946-6.138491363525391-148.63010394287107-19.168119689941406-178.77453359985353L843.8670500183105 525.9202895406088 843.8670500183105 525.9202219746908zM120.21100573730467 525.763904103597L120.21100573730467 525.763904103597c16.66521029663086 0 30.22703723144531-13.47928692626953 30.22703723144531-30.07126400756836l0-421.78702505493163c0-16.73878298950195-13.56189532470703-30.227649444580077-30.22703723144531-30.227649444580077-16.58756140136719 0-30.07126400756836 13.488865631103517-30.07126400756836 30.227649444580077l0 421.78702505493163C90.13974172973633 512.2846171773274 103.6234443359375 525.763904103597 120.21100573730467 525.763904103597L120.21100573730467 525.763904103597z"  horiz-adv-x="1024" />

    
    <glyph glyph-name="liebiao" unicode="&#59026;" d="M66.60495400000008 796.4793789999999l893.7085619999999 0L960.3135149999999 658.988981 66.60495400000008 658.988981 66.60495400000008 796.4793789999999 66.60495400000008 796.4793789999999M66.60495400000008 452.74571l893.7085619999999 0 0-137.491421L66.60495400000008 315.2542900000001 66.60495400000008 452.74571 66.60495400000008 452.74571M66.60495400000008 109.01204199999995l893.7085619999999 0 0-137.490398L66.60495400000008-28.478356000000076 66.60495400000008 109.01204199999995 66.60495400000008 109.01204199999995M66.60495400000008 109.01204199999995L66.60495400000008 109.01204199999995z"  horiz-adv-x="1024" />

    
    <glyph glyph-name="jiantou2" unicode="&#58885;" d="M505.86083984374994 173.30419921875l369.11865234375 378.7330078125-41.801660156249994 42.85634765625-327.29150390625-335.83095703125-327.29062500000003 335.80458984375-41.802539062499996-42.826464843749996z"  horiz-adv-x="1024" />

    
    </font>
</defs>
</svg>
